<?xml version="1.0" standalone="no"?>
<!DOCTYPE svg PUBLIC "-//W3C//DTD SVG 1.1//EN" "http://www.w3.org/Graphics/SVG/1.1/DTD/svg11.dtd" >
<svg>
<metadata>
Created by FontForge 20090914 at Thu Apr  4 19:13:09 2019
 By www-data
Copyright 2010, 2012, 2014 Adobe Systems Incorporated (http://www.adobe.com/), with Reserved Font Name 'Source'.
</metadata>
<defs>
<font id="SourceSansPro-Light" horiz-adv-x="479" >
  <font-face 
    font-family="Source Sans Pro Light"
    font-weight="300"
    font-stretch="normal"
    units-per-em="1000"
    panose-1="2 11 4 3 3 4 3 2 2 4"
    ascent="750"
    descent="-250"
    x-height="479.999"
    cap-height="659"
    bbox="-33 -250 877.999 869"
    underline-thickness="50"
    underline-position="-50"
    unicode-range="U+0020-U+04F3"
  />
<missing-glyph horiz-adv-x="632" 
d="M94 0v660h444v-660h-444zM158 39h312l-93 164l-59 105h-4l-61 -105zM314 372h4l53 92l86 155h-284l87 -155zM139 84l147 256l-147 260v-516zM491 84v516l-145 -260z" />
    <glyph glyph-name="f_f" unicode="ff" horiz-adv-x="530" 
d="M554 715l-11.999 -35.999c-18 9.33301 -37 14 -57 14c-50 0 -75 -36.333 -75 -109v-104h111v-38h-111v-442h-44v442h-223v-442h-44v442h-66v34l66 4v89c0 49.333 11.333 87 34 113s54.667 39 96 39c28 0 55 -6 81 -18l-12 -36c-21.333 10.667 -44.333 16 -69 16
c-57.333 0 -86 -39 -86 -117v-86h223v107c0 47.333 10.167 83.166 30.5 107.499s49.5 36.5 87.5 36.5c23.333 0 46.666 -5.33301 69.999 -16z" />
    <glyph glyph-name="f_t" unicode="ft" horiz-adv-x="539" 
d="M516 42l12 -36c-33.333 -12 -59.666 -18 -78.999 -18c-43.333 0 -74 12.5 -92 37.5s-27 60.833 -27 107.5v309h-187v-442h-44v442h-66v34l66 4v107c0 47.333 10.333 83.166 31 107.499s50 36.5 88 36.5c23.333 0 46.666 -5.33301 69.999 -16l-12 -36
c-18.667 9.33301 -38 14 -58 14c-50 0 -75 -36.333 -75 -109v-104h188l6 139h37v-139h140v-38h-140v-313c0 -33.333 6 -58.666 18 -75.999s33.333 -26 64 -26c18.667 0 38.667 5 60 15z" />
    <glyph glyph-name="f_f_t" unicode="fft" horiz-adv-x="805" 
d="M783 42l12 -36c-33.333 -12 -59.666 -18 -78.999 -18c-43.333 0 -74 12.5 -92 37.5s-27 60.833 -27 107.5v309h-187v-442h-44v442h-223v-442h-44v442h-66v34l66 4v89c0 49.333 11.333 87 34 113s54.667 39 96 39c28 0 55 -6 81 -18l-12 -36
c-21.333 10.667 -44.333 16 -69 16c-57.333 0 -86 -39 -86 -117v-86h223v107c0 47.333 10.167 83.166 30.5 107.499s49.5 36.5 87.5 36.5c23.333 0 46.666 -5.33301 69.999 -16l-12 -36c-18 9.33301 -37 14 -57 14c-50 0 -75 -36.333 -75 -109v-104h188l6 139h37v-139h139
v-38h-139v-313c0 -33.333 6 -58.666 18 -75.999s33.333 -26 64 -26c18.667 0 38.667 5 60 15z" />
    <glyph glyph-name=".notdef" horiz-adv-x="632" 
d="M94 0v660h444v-660h-444zM158 39h312l-93 164l-59 105h-4l-61 -105zM314 372h4l53 92l86 155h-284l87 -155zM139 84l147 256l-147 260v-516zM491 84v516l-145 -260z" />
    <glyph glyph-name="space" unicode=" " horiz-adv-x="200" 
 />
    <glyph glyph-name="exclam" unicode="!" horiz-adv-x="259" 
d="M113 179l-6 420v71h46l-1 -71l-6 -420h-33zM130 -12c-11.333 0 -21.333 4.16699 -30 12.5s-13 19.166 -13 32.499c0 14 4.33301 25.167 13 33.5s18.667 12.5 30 12.5s21.166 -4.16699 29.499 -12.5s12.5 -19.5 12.5 -33.5c0 -13.333 -4.16699 -24.166 -12.5 -32.499
s-18.166 -12.5 -29.499 -12.5z" />
    <glyph glyph-name="quotedbl" unicode="&#x22;" horiz-adv-x="360" 
d="M92 477l-8 147l-1 69h51v-69l-9 -147h-33zM233 477l-8 147l-1 69h51v-69l-9 -147h-33z" />
    <glyph glyph-name="numbersign" unicode="#" 
d="M93 0l26 214h-83v36h87l21 170h-88v36h92l25 194h35l-25 -194h149l26 194h34l-25 -194h82v-36h-85l-21 -170h86v-36h-91l-25 -214h-35l25 214h-149l-26 -214h-35zM158 250h150l21 170h-150z" />
    <glyph glyph-name="dollar" unicode="$" 
d="M402 580l-26.001 -27.999c-22 21.333 -42 36.666 -60 45.999s-41.333 14 -70 14c-34 0 -61.833 -10.833 -83.5 -32.5s-32.5 -49.167 -32.5 -82.5c0 -32 10 -58.667 30 -80s44 -38.666 72 -51.999l84.5 -42c28.333 -14.667 52.5 -36.167 72.5 -64.5s30 -63.5 30 -105.5
c0 -46.667 -14.333 -84.667 -43 -114s-65.667 -46 -111 -50v-99h-39v99c-62 4.66699 -117.667 30.334 -167 77.001l24 31c52 -46.667 105.667 -70 161 -70c41.333 0 73.333 11.167 96 33.5s34 52.166 34 89.499c0 36 -10 66.333 -30 91s-44 44 -72 58l-84.5 42.5
c-28.333 14.333 -52.5 34.166 -72.5 59.499s-30 56.666 -30 93.999c0 41.333 13.333 76.333 40 105s60.334 45.334 101.001 50.001v99h39v-99c30 -2 55.333 -8.83301 76 -20.5s41 -28.167 61 -49.5z" />
    <glyph glyph-name="percent" unicode="%" horiz-adv-x="805" 
d="M181 257c-44 0 -78.5 18.167 -103.5 54.5s-37.5 87.5 -37.5 153.5c0 65.333 12.5 116 37.5 152s59.5 54 103.5 54s78.5 -18 103.5 -54s37.5 -86.667 37.5 -152c0 -66 -12.5 -117.167 -37.5 -153.5s-59.5 -54.5 -103.5 -54.5zM181 290c31.333 0 56.166 15.5 74.499 46.5
s27.5 73.833 27.5 128.5s-9.16699 97.167 -27.5 127.5s-43.166 45.5 -74.499 45.5s-56.166 -15.167 -74.499 -45.5s-27.5 -72.833 -27.5 -127.5s9.16699 -97.5 27.5 -128.5s43.166 -46.5 74.499 -46.5zM624 -12c-44 0 -78.5 18.167 -103.5 54.5s-37.5 87.5 -37.5 153.5
c0 65.333 12.5 116 37.5 152s59.5 54 103.5 54s78.5 -18 103.5 -54s37.5 -86.667 37.5 -152c0 -66 -12.5 -117.167 -37.5 -153.5s-59.5 -54.5 -103.5 -54.5zM624 21c31.333 0 56.166 15.5 74.499 46.5s27.5 73.833 27.5 128.5s-9.16699 97.167 -27.5 127.5
s-43.166 45.5 -74.499 45.5s-56.166 -15.167 -74.499 -45.5s-27.5 -72.833 -27.5 -127.5s9.16699 -97.5 27.5 -128.5s43.166 -46.5 74.499 -46.5zM198 -12l368 683h38l-367 -683h-39z" />
    <glyph glyph-name="ampersand" unicode="&#x26;" horiz-adv-x="575" 
d="M230 26c51.333 0 100 23.667 146 71c-79.333 72.667 -141.666 150 -186.999 232c-34.667 -27.333 -61.334 -53.166 -80.001 -77.499s-28 -51.5 -28 -81.5c0 -42.667 14.5 -77.334 43.5 -104.001s64.167 -40 105.5 -40zM168 526c0 -42 12.334 -88.667 37.001 -140
c42 30 73.833 57 95.5 81s32.5 51.333 32.5 82c0 24 -5.83301 44.333 -17.5 61s-29.834 25 -54.501 25c-28 0 -50.5 -10.5 -67.5 -31.5s-25.5 -46.833 -25.5 -77.5zM562.001 27l-14.999 -39.0029c-43.333 15.333 -90.333 43 -141 83c-54 -55.333 -114 -83 -180 -83
c-54 0 -99.167 16.5 -135.5 49.5s-54.5 76.167 -54.5 129.5c0 39.333 11.667 73.5 35 102.5s56.666 59.5 99.999 91.5c-29.333 60.667 -44 115 -44 163c0 42.667 12.667 77.834 38 105.501s58 41.5 98 41.5c34.667 0 61.667 -11.167 81 -33.5s29 -51.166 29 -86.499
c0 -20 -3.83301 -39 -11.5 -57s-20.5 -36 -38.5 -54s-33 -32 -45 -42s-31 -24.667 -57 -44c45.333 -83.333 106.333 -158.666 183 -225.999c45.333 56.667 80 129 104 217h43c-28.667 -98.667 -67.667 -179.334 -117 -242.001c44 -35.333 86.667 -60.666 128 -75.999z" />
    <glyph glyph-name="quotesingle" unicode="'" horiz-adv-x="219" 
d="M92 477l-8 147l-1 69h51v-69l-9 -147h-33z" />
    <glyph glyph-name="parenleft" unicode="(" horiz-adv-x="279" 
d="M220 -175c-88 142.667 -132 293.667 -132 453s44 310.333 132 453l27 -16c-80 -127.333 -120 -273 -120 -437s40 -309.667 120 -437z" />
    <glyph glyph-name="parenright" unicode=")" horiz-adv-x="279" 
d="M59 -175l-27 16c80 127.333 120 273 120 437s-40 309.667 -120 437l27 16c88 -142.667 132 -293.667 132 -453s-44 -310.333 -132 -453z" />
    <glyph glyph-name="asterisk" unicode="*" horiz-adv-x="395" 
d="M132 462l-27 20l55 88l-90 36l10 30l94 -26l7 102h32l7 -100l95 24l10 -30l-90 -36l54 -88l-27 -20l-64 83z" />
    <glyph glyph-name="plus" unicode="+" 
d="M219 110v201h-185v38h185v201h41v-201h185v-38h-185v-201h-41z" />
    <glyph glyph-name="comma" unicode="," horiz-adv-x="219" 
d="M62 -155l-14 29.999c50.667 26.667 76.334 67 77.001 121c-2.66699 -0.666992 -6.66699 -1 -12 -1c-12 0 -22 3.66699 -30 11s-12 17.666 -12 30.999c0 12.667 4.16699 22.834 12.5 30.501s18.5 11.5 30.5 11.5c15.333 0 27.666 -6.33301 36.999 -19s14 -30 14 -52
c0 -35.333 -9.33301 -67.166 -28 -95.499s-43.667 -50.833 -75 -67.5z" />
    <glyph glyph-name="hyphen" unicode="-" horiz-adv-x="299" 
d="M40 230v39h220v-39h-220z" />
    <glyph glyph-name="period" unicode="." horiz-adv-x="219" 
d="M110 -12c-11.333 0 -21.333 4.16699 -30 12.5s-13 19.166 -13 32.499c0 14 4.33301 25.167 13 33.5s18.667 12.5 30 12.5s21.166 -4.16699 29.499 -12.5s12.5 -19.5 12.5 -33.5c0 -13.333 -4.16699 -24.166 -12.5 -32.499s-18.166 -12.5 -29.499 -12.5z" />
    <glyph glyph-name="slash" unicode="/" horiz-adv-x="357" 
d="M9 -160l305 870h38l-305 -870h-38z" />
    <glyph glyph-name="zero" unicode="0" 
d="M239 -12c-60.667 0 -107.667 29 -141 87s-50 140.333 -50 247c0 106 16.5 187.333 49.5 244s80.167 85 141.5 85s108.5 -28.333 141.5 -85s49.5 -138 49.5 -244c0 -106.667 -16.667 -189 -50 -247s-80.333 -87 -141 -87zM239 26c45.333 0 81 25.333 107 76s39 124 39 220
c0 95.333 -13 167.666 -39 216.999s-61.667 74 -107 74s-81 -24.667 -107 -74s-39 -121.666 -39 -216.999s13 -168.5 39 -219.5s61.667 -76.5 107 -76.5z" />
    <glyph glyph-name="one" unicode="1" 
d="M84 0v39h150v530h-114v30c50 8.66699 91 22 123 40h36v-600h139v-39h-334z" />
    <glyph glyph-name="two" unicode="2" 
d="M41 0l-0.00292969 28c116 118 197.5 208.333 244.5 271s70.5 120 70.5 172c0 42 -11.667 76.167 -35 102.5s-58 39.5 -104 39.5c-54 0 -103.667 -28 -149 -84l-29 28c56.667 62.667 117.334 94 182.001 94c56.667 0 100.834 -16.167 132.501 -48.5
s47.5 -75.833 47.5 -130.5c0 -20.667 -2.66699 -41.167 -8 -61.5s-15.333 -43 -30 -68s-28.167 -46.5 -40.5 -64.5s-32.833 -43.333 -61.5 -76l-68.5 -76.5l-84.5 -90.5c58.667 3.33301 94.334 5 107.001 5h218v-40h-392z" />
    <glyph glyph-name="three" unicode="3" 
d="M232 -12c-78 0 -145.668 29.999 -203.001 89.999l26 31c49.333 -54.667 108.333 -82 177 -82c43.333 0 79 13 107 39s42 60 42 102c0 98.667 -74.333 148 -223 148v39c70 0 120.833 12.667 152.5 38s47.5 59 47.5 101c0 36 -11.667 64.833 -35 86.5
s-54.666 32.5 -93.999 32.5c-54 0 -103 -23.333 -147 -70l-26 30c53.333 52 111 78 173 78c51.333 0 93.333 -13.667 126 -41s49 -65 49 -113c0 -77.333 -40.667 -130 -122 -158v-4c42 -8.66699 76.667 -27.667 104 -57s41 -65.666 41 -108.999
c0 -54.667 -18.5 -98.5 -55.5 -131.5s-83.5 -49.5 -139.5 -49.5z" />
    <glyph glyph-name="four" unicode="4" 
d="M70 229l240 -0.000976562v234c0 34.667 1.33301 71.334 4 110.001h-4c-6 -10 -14.833 -23.667 -26.5 -41s-20.167 -30.333 -25.5 -39zM448 228.999v-38h-95v-191h-43v191h-294v26l297 422h40v-410h95z" />
    <glyph glyph-name="five" unicode="5" 
d="M227 -12c-76.667 0 -143.665 28.6689 -200.998 86.002l25 31c50.667 -52 109 -78 175 -78c44 0 81.5 16.167 112.5 48.5s46.5 73.5 46.5 123.5c0 51.333 -14 91.666 -42 120.999s-66 44 -114 44c-37.333 0 -77 -14.333 -119 -43l-31 19l23 299h295v-39h-255l-20 -231
c37.333 22.667 75.333 34 114 34c57.333 0 104.166 -17 140.499 -51s54.5 -84.333 54.5 -151c0 -64.667 -20.333 -116.334 -61 -155.001s-88.334 -58 -143.001 -58z" />
    <glyph glyph-name="six" unicode="6" 
d="M262 26c36.667 0 67.334 15.5 92.001 46.5s37 69.5 37 115.5c0 48.667 -11.333 87.5 -34 116.5s-57.334 43.5 -104.001 43.5c-56 0 -107.667 -32 -155 -96c4 -70 19.833 -125.167 47.5 -165.5s66.5 -60.5 116.5 -60.5zM422 589l-27.002 -30c-28 35.333 -64 53 -108 53
c-55.333 0 -100.666 -25 -135.999 -75s-53.333 -130 -54 -240c48.667 59.333 102.334 89 161.001 89c56.667 0 100.5 -17 131.5 -51s46.5 -83 46.5 -147c0 -57.333 -17.167 -105 -51.5 -143s-75.5 -57 -123.5 -57c-64.667 0 -115.667 26.333 -153 79s-56 127 -56 223
c0 125.333 22.167 216.833 66.5 274.5s100.5 86.5 168.5 86.5c53.333 0 98.333 -20.667 135 -62z" />
    <glyph glyph-name="seven" unicode="7" 
d="M188 0c4.66699 128 21.832 237.332 51.499 327.999s76.834 181.334 141.501 272.001h-337v39h393v-26c-73.333 -97.333 -123.833 -190.833 -151.5 -280.5s-44.167 -200.5 -49.5 -332.5h-48z" />
    <glyph glyph-name="eight" unicode="8" 
d="M243 -12c-58.667 0 -107.167 16.667 -145.5 50s-57.5 75.333 -57.5 126c0 39.333 12.5 74.5 37.5 105.5s55.167 55.833 90.5 74.5v4c-61.333 40.667 -92 89.667 -92 147c0 45.333 16 82.666 48 111.999s71.667 44 119 44c53.333 0 95.5 -15.5 126.5 -46.5
s46.5 -71.167 46.5 -120.5c0 -31.333 -9.33301 -61.5 -28 -90.5s-39.667 -52.833 -63 -71.5v-4c34.667 -21.333 62 -44.166 82 -68.499s30 -55.833 30 -94.5c0 -47.333 -18 -87 -54 -119s-82.667 -48 -140 -48zM290 335c56 45.333 83.9971 94.667 83.9971 148
c0 36.667 -11.833 67.667 -35.5 93s-55.5 38 -95.5 38c-35.333 0 -64.666 -11.167 -87.999 -33.5s-35 -50.833 -35 -85.5c0 -21.333 4.5 -40.5 13.5 -57.5s22.833 -32 41.5 -45s35.834 -23.167 51.501 -30.5s36.834 -16.333 63.501 -27zM242.997 25.001
c44 0 79.834 12.501 107.501 37.501s41.5 56.167 41.5 93.5c0 22.667 -4.83301 42.667 -14.5 60s-24.167 32.5 -43.5 45.5s-38.166 23.667 -56.499 32s-41.5 18.166 -69.5 29.499c-4.66699 2 -8.33398 3.33301 -11.001 4c-75.333 -44 -113 -97.667 -113 -161
c0 -40 15.167 -73.5 45.5 -100.5s68.166 -40.5 113.499 -40.5z" />
    <glyph glyph-name="nine" unicode="9" 
d="M226 291c56 0 107.669 32.333 155.002 97c-4 70 -19.833 125 -47.5 165s-66.834 60 -117.501 60c-36.667 0 -67.334 -15.5 -92.001 -46.5s-37 -69.167 -37 -114.5c0 -49.333 11.5 -88.5 34.5 -117.5s57.833 -43.5 104.5 -43.5zM56.002 50l27.001 30
c28 -35.333 64.333 -53 109 -53c55.333 0 100.666 25 135.999 75s53.333 130 54 240c-48.667 -58.667 -102.667 -88 -162 -88c-56 0 -99.5 17 -130.5 51s-46.5 83 -46.5 147c0 57.333 17.167 104.833 51.5 142.5s75.5 56.5 123.5 56.5c64.667 0 115.5 -26.167 152.5 -78.5
s55.5 -126.5 55.5 -222.5c0 -125.333 -22 -217 -66 -275s-100.333 -87 -169 -87c-54 0 -99 20.667 -135 62z" />
    <glyph glyph-name="colon" unicode=":" horiz-adv-x="219" 
d="M110 370c-11.333 0 -21.333 4.16699 -30 12.5s-13 19.166 -13 32.499c0 14 4.33301 25.167 13 33.5s18.667 12.5 30 12.5s21.166 -4.16699 29.499 -12.5s12.5 -19.5 12.5 -33.5c0 -13.333 -4.16699 -24.166 -12.5 -32.499s-18.166 -12.5 -29.499 -12.5zM110 -12
c-11.333 0 -21.333 4.16699 -30 12.5s-13 19.166 -13 32.499c0 14 4.33301 25.167 13 33.5s18.667 12.5 30 12.5s21.166 -4.16699 29.499 -12.5s12.5 -19.5 12.5 -33.5c0 -13.333 -4.16699 -24.166 -12.5 -32.499s-18.166 -12.5 -29.499 -12.5z" />
    <glyph glyph-name="semicolon" unicode=";" horiz-adv-x="219" 
d="M110 370c-11.333 0 -21.333 4.16699 -30 12.5s-13 19.166 -13 32.499c0 14 4.33301 25.167 13 33.5s18.667 12.5 30 12.5s21.166 -4.16699 29.499 -12.5s12.5 -19.5 12.5 -33.5c0 -13.333 -4.16699 -24.166 -12.5 -32.499s-18.166 -12.5 -29.499 -12.5zM62 -155
l-14 29.999c50.667 26.667 76.334 67 77.001 121c-2.66699 -0.666992 -6.66699 -1 -12 -1c-12 0 -22 3.66699 -30 11s-12 17.666 -12 30.999c0 12.667 4.16699 22.834 12.5 30.501s18.5 11.5 30.5 11.5c15.333 0 27.666 -6.33301 36.999 -19s14 -30 14 -52
c0 -35.333 -9.33301 -67.166 -28 -95.499s-43.667 -50.833 -75 -67.5z" />
    <glyph glyph-name="less" unicode="&#x3c;" 
d="M445 146l-411 164v44l411 164v-43l-232 -90l-133 -51v-4l133 -51l232 -90v-43z" />
    <glyph glyph-name="equal" unicode="=" 
d="M34 413v38h411v-38h-411zM34 209v38h411v-38h-411z" />
    <glyph glyph-name="greater" unicode="&#x3e;" 
d="M34 146v43l232 90l133 51v4l-133 51l-232 90v43l411 -164v-44z" />
    <glyph glyph-name="question" unicode="?" horiz-adv-x="402" 
d="M163 179c-4 30.667 -1.83105 59.6689 6.50195 87.002s19.833 51.333 34.5 72s29.667 40.5 45 59.5s28.666 39.667 39.999 62s17 44.5 17 66.5c0 33.333 -9.66699 61.166 -29 83.499s-47.333 33.5 -84 33.5c-51.333 0 -94.333 -21.333 -129 -64l-27 25
c46 52 99.333 78 160 78c47.333 0 85 -14.333 113 -43s42 -65.334 42 -110.001c0 -24.667 -5.66699 -49 -17 -73s-25 -45.833 -41 -65.5l-47 -60.5c-15.333 -20.667 -27.333 -44 -36 -70s-11.334 -53 -8.00098 -81h-40zM186.002 -11.998
c-11.333 0 -21.166 4.16699 -29.499 12.5s-12.5 19.166 -12.5 32.499c0 14 4.16699 25.167 12.5 33.5s18.166 12.5 29.499 12.5s21.333 -4.16699 30 -12.5s13 -19.5 13 -33.5c0 -13.333 -4.33301 -24.166 -13 -32.499s-18.667 -12.5 -30 -12.5z" />
    <glyph glyph-name="at" unicode="@" horiz-adv-x="814" 
d="M388 -146c-98.667 0 -179.335 31.1689 -242.002 93.502s-94 147.166 -94 254.499c0 126.667 38.833 230.167 116.5 310.5s171.167 120.5 280.5 120.5c96 0 172.333 -29 229 -87s85 -134.667 85 -230c0 -79.333 -19.167 -142.5 -57.5 -189.5s-80.5 -70.5 -126.5 -70.5
c-27.333 0 -49.666 6.33301 -66.999 19s-27.333 31.667 -30 57h-2c-42 -46.667 -82.667 -70 -122 -70c-32.667 0 -59.834 11.833 -81.501 35.5s-32.5 57.167 -32.5 100.5c0 54 17.333 105 52 153s79.334 72 134.001 72c35.333 0 63 -16 83 -48h2l9 40h34l-36 -189
c-22.667 -90 -2.66699 -135 60 -135c35.333 0 68 20.5 98 61.5s45 94.5 45 160.5c0 86.667 -25 155.834 -75 207.501s-118 77.5 -204 77.5c-95.333 0 -178.5 -36.833 -249.5 -110.5s-106.5 -167.834 -106.5 -282.501c0 -96.667 27.5 -173.334 82.5 -230.001
s127.833 -85 218.5 -85c59.333 0 115.333 16 168 48l16 -30c-57.333 -36 -119.666 -54 -186.999 -54zM363.999 98.002c33.333 0 69.333 22.333 108 67l31 173c-21.333 32.667 -46 49 -74 49c-42.667 0 -77.5 -19.5 -104.5 -58.5s-40.5 -81.5 -40.5 -127.5
c0 -68.667 26.667 -103 80 -103z" />
    <glyph glyph-name="A" unicode="A" horiz-adv-x="526" 
d="M146 265h234l-42 123c-30.667 88.667 -55 164.667 -73 228h-4c-18 -63.333 -42.333 -139.333 -73 -228zM470 0l-77 226h-261l-78 -226h-46l232 659h46l232 -659h-48z" />
    <glyph glyph-name="B" unicode="B" horiz-adv-x="578" 
d="M97 0l0.000976562 658.998h178c68.667 0 122.167 -13.333 160.5 -40s57.5 -66.667 57.5 -120c0 -35.333 -8.83301 -65.666 -26.5 -90.999s-42.834 -43 -75.501 -53v-4c44 -7.33301 78.667 -24.666 104 -51.999s38 -63 38 -107c0 -62 -21.833 -109.5 -65.5 -142.5
s-103.5 -49.5 -179.5 -49.5h-191zM143.001 368.998h114c126.667 0 190 41.667 190 125c0 45.333 -15.167 77.833 -45.5 97.5s-76.833 29.5 -139.5 29.5h-119v-252zM143.001 37.998l133 0.000976562c67.333 0 119.5 12.667 156.5 38s55.5 63.666 55.5 114.999
c0 93.333 -70.667 140 -212 140h-133v-293z" />
    <glyph glyph-name="C" unicode="C" horiz-adv-x="564" 
d="M331 -12c-82 0 -148.501 31.167 -199.501 93.5s-76.5 145.5 -76.5 249.5s25.833 186.667 77.5 248s119.5 92 203.5 92c70 0 127.333 -26.333 172 -79l-27 -31c-40 45.333 -88 68 -144 68c-72.667 0 -129.834 -26.667 -171.501 -80s-62.5 -126 -62.5 -218
s20.667 -165.167 62 -219.5s97.333 -81.5 168 -81.5c62.667 0 118.334 27 167.001 81l27 -29c-55.333 -62.667 -120.666 -94 -195.999 -94z" />
    <glyph glyph-name="D" unicode="D" horiz-adv-x="604" 
d="M97 0v659.001h153c98.667 0 173.167 -28.833 223.5 -86.5s75.5 -137.834 75.5 -240.501c0 -103.333 -25.167 -184.5 -75.5 -243.5s-124.5 -88.5 -222.5 -88.5h-154zM143 39.001l102 0.000976562c86 0 150.167 26.333 192.5 79s63.5 124 63.5 214
c0 89.333 -21.167 159.666 -63.5 210.999s-106.5 77 -192.5 77h-102v-581z" />
    <glyph glyph-name="E" unicode="E" horiz-adv-x="515" 
d="M97 0v659h361v-40h-315v-249h264v-40h-264v-290h325v-40h-371z" />
    <glyph glyph-name="F" unicode="F" horiz-adv-x="477" 
d="M97 0v659h359v-40h-313v-262h265v-40h-265v-317h-46z" />
    <glyph glyph-name="G" unicode="G" horiz-adv-x="605" 
d="M338 -12c-85.333 0 -153.831 31 -205.498 93s-77.5 145.333 -77.5 250c0 104 26.667 186.667 80 248s123.666 92 210.999 92c70 0 130 -26.333 180 -79l-27 -31c-41.333 45.333 -92 68 -152 68c-75.333 0 -134.833 -26.667 -178.5 -80s-65.5 -126 -65.5 -218
s21 -165.167 63 -219.5s100.333 -81.5 175 -81.5c65.333 0 114.666 16.667 147.999 50v205h-158v39h202v-261c-46.667 -50 -111.667 -75 -195 -75z" />
    <glyph glyph-name="H" unicode="H" horiz-adv-x="639" 
d="M97 0v659h46v-289h353v289h46v-659h-46v330h-353v-330h-46z" />
    <glyph glyph-name="I" unicode="I" horiz-adv-x="240" 
d="M97 0v659h46v-659h-46z" />
    <glyph glyph-name="J" unicode="J" horiz-adv-x="462" 
d="M203 -12c-73.333 0 -127.333 32.333 -162 97l35 23c30 -52 72.333 -78 127 -78c40 0 69.667 12.333 89 37s29 63.667 29 117v475h46v-480c0 -57.333 -13.167 -103.5 -39.5 -138.5s-67.833 -52.5 -124.5 -52.5z" />
    <glyph glyph-name="K" unicode="K" horiz-adv-x="558" 
d="M97 0v659h46v-366h2l319 366h55l-210 -244l239 -415h-53l-218 380l-134 -153v-227h-46z" />
    <glyph glyph-name="L" unicode="L" horiz-adv-x="467" 
d="M97 0v659h46v-619h304v-40h-350z" />
    <glyph glyph-name="M" unicode="M" horiz-adv-x="706" 
d="M97 0l0.000976562 659.001h65l138 -387c3.33301 -10 11.166 -32.167 23.499 -66.5l28.5 -79.5h4l24 69.5l26 76.5l137 387h66v-659h-45v433c0 45.333 2 104.666 6 177.999h-4l-51 -147l-142 -392h-40l-143 392l-52 147h-4c4 -110 6 -169.333 6 -178v-433h-43z" />
    <glyph glyph-name="N" unicode="N" horiz-adv-x="636" 
d="M97 0v659h48l278 -465l74 -131h4l-6 192v404h44v-659h-48l-278 465l-74 131h-4c0.666992 -14 1.5 -33.5 2.5 -58.5s1.83301 -48 2.5 -69s1 -40.833 1 -59.5v-409h-44z" />
    <glyph glyph-name="O" unicode="O" horiz-adv-x="652" 
d="M326 -12c-80 0 -145.167 31.5 -195.5 94.5s-75.5 146.167 -75.5 249.5c0 102.667 25.167 184.834 75.5 246.501s115.5 92.5 195.5 92.5c80.667 0 146.167 -30.833 196.5 -92.5s75.5 -143.834 75.5 -246.501c0 -103.333 -25.333 -186.5 -76 -249.5s-116 -94.5 -196 -94.5z
M326 30c67.333 0 121.333 27.5 162 82.5s61 128.167 61 219.5c0 90.667 -20.333 162.834 -61 216.501s-94.667 80.5 -162 80.5s-121.333 -26.833 -162 -80.5s-61 -125.834 -61 -216.501c0 -91.333 20.333 -164.5 61 -219.5s94.667 -82.5 162 -82.5z" />
    <glyph glyph-name="P" unicode="P" horiz-adv-x="549" 
d="M97 0v658.999h166c78 0 137.333 -14.333 178 -43s61 -75.667 61 -141c0 -63.333 -20.5 -111.166 -61.5 -143.499s-98.833 -48.5 -173.5 -48.5h-124v-283h-46zM143 321.999l113 0.000976562c68 0 118.167 12.167 150.5 36.5s48.5 63.166 48.5 116.499
c0 54 -16.167 91.667 -48.5 113s-83.833 32 -154.5 32h-109v-298z" />
    <glyph glyph-name="Q" unicode="Q" horiz-adv-x="652" 
d="M103 332c0 -92 20.333 -165.833 61 -221.5s94.667 -83.5 162 -83.5s121.333 27.833 162 83.5s61 129.5 61 221.5c0 90.667 -20.333 162.834 -61 216.501s-94.667 80.5 -162 80.5s-121.333 -26.833 -162 -80.5s-61 -125.834 -61 -216.501zM590 -105l10 -39
c-27.333 -8 -54.333 -12 -81 -12c-53.333 0 -98.833 13.333 -136.5 40s-65.167 61.667 -82.5 105c-72.667 7.33301 -131.667 42 -177 104s-68 141.667 -68 239c0 102.667 25.167 184.834 75.5 246.501s115.5 92.5 195.5 92.5c80.667 0 146.167 -30.833 196.5 -92.5
s75.5 -143.834 75.5 -246.501c0 -98 -22.667 -177.833 -68 -239.5s-105 -96.167 -179 -103.5c30.667 -68 88 -102 172 -102c22 0 44.333 2.66699 67 8z" />
    <glyph glyph-name="R" unicode="R" horiz-adv-x="544" 
d="M143 341h131c120.667 0 181 48 181 144c0 48 -15.167 82.5 -45.5 103.5s-75.5 31.5 -135.5 31.5h-131v-279zM515 0l-53 0.000976562l-179 303h-140v-303h-46v659h189c144 0 216 -58 216 -174c0 -51.333 -14.833 -92.333 -44.5 -123s-71.167 -49.334 -124.5 -56.001z" />
    <glyph glyph-name="S" unicode="S" horiz-adv-x="521" 
d="M269 -12c-89.333 0 -163.666 32.998 -222.999 98.998l30 32c52.667 -59.333 117 -89 193 -89c50 0 89.833 12.167 119.5 36.5s44.5 56.166 44.5 95.499c0 20 -2.83301 37.333 -8.5 52s-14.834 27.334 -27.501 38.001s-24.5 19 -35.5 25s-26.5 13.667 -46.5 23l-100 45
c-18 8 -33.333 15.833 -46 23.5s-26.5 17.834 -41.5 30.501s-26.5 28.334 -34.5 47.001s-12 39.667 -12 63c0 47.333 18.167 86.166 54.5 116.499s82.166 45.5 137.499 45.5c73.333 0 134.333 -26.333 183 -79l-26 -30c-43.333 44.667 -95.666 67 -156.999 67
c-44 0 -79.333 -10.667 -106 -32s-40 -50 -40 -86c0 -18 3.16699 -34 9.5 -48s16.5 -26.167 30.5 -36.5s25.5 -18 34.5 -23s22.167 -11.5 39.5 -19.5l100 -44c44.667 -20 79 -42.667 103 -68s36 -61 36 -107c0 -51.333 -19.333 -93.666 -58 -126.999s-89.667 -50 -153 -50z
" />
    <glyph glyph-name="T" unicode="T" horiz-adv-x="524" 
d="M239 0v619h-210v40h466v-40h-210v-619h-46z" />
    <glyph glyph-name="U" unicode="U" horiz-adv-x="634" 
d="M316 -12c-30 0 -57.499 4.33301 -82.499 13s-48.333 22.667 -70 42s-38.5 46.833 -50.5 82.5s-18 78.167 -18 127.5v406h46v-401c0 -81.333 16.167 -139.666 48.5 -174.999s74.5 -53 126.5 -53c53.333 0 96.666 17.667 129.999 53s50 93.666 50 174.999v401h43v-406
c0 -49.333 -6.16699 -91.833 -18.5 -127.5s-29.333 -63.167 -51 -82.5s-45 -33.333 -70 -42s-52.833 -13 -83.5 -13z" />
    <glyph glyph-name="V" unicode="V" horiz-adv-x="491" 
d="M222 0l-218 659h49l122 -385c38 -122 61.333 -195.667 70 -221h4l23 71.5l24 78.5l22 71l122 385h47l-216 -659h-49z" />
    <glyph glyph-name="W" unicode="W" horiz-adv-x="770" 
d="M178 0l-149.999 658.999h48l83 -388l45 -215h4c16.667 74.667 33.667 146.334 51 215.001l103 388h47l103 -388l26.5 -107.5l26.5 -107.5h4l21 107.5c9.33301 47.667 16.666 83.5 21.999 107.5l83 388h45l-147 -659h-51l-120 452c-2 10 -7.33301 32.333 -16 67
s-15 62 -19 82h-4c-4 -18.667 -10.333 -44.5 -19 -77.5s-14.667 -56.833 -18 -71.5l-118 -452h-50z" />
    <glyph glyph-name="X" unicode="X" horiz-adv-x="482" 
d="M17 0l197.999 341l-184 318h50l108 -194l54 -90h4l49 90l108 194h47l-184 -320l198 -339h-50l-115 202c-13.333 24.667 -33.666 59.667 -60.999 105h-4l-56 -105l-115 -202h-47z" />
    <glyph glyph-name="Y" unicode="Y" horiz-adv-x="447" 
d="M200 0v267l-197 392h49l100 -206c35.333 -74 58.666 -121.333 69.999 -142h4c36.667 70.667 60.334 118 71.001 142l100 206h47l-198 -392v-267h-46z" />
    <glyph glyph-name="Z" unicode="Z" horiz-adv-x="538" 
d="M50 0v27l379 592h-346v40h404v-27l-380 -592h383v-40h-440z" />
    <glyph glyph-name="bracketleft" unicode="[" horiz-adv-x="279" 
d="M98 -152v860h160v-29h-125v-802h125v-29h-160z" />
    <glyph glyph-name="backslash" unicode="\" horiz-adv-x="357" 
d="M311 -160l-306 870h38l306 -870h-38z" />
    <glyph glyph-name="bracketright" unicode="]" horiz-adv-x="279" 
d="M21 -152v29h125v802h-125v29h160v-860h-160z" />
    <glyph glyph-name="asciicircum" unicode="^" 
d="M66 290l150 380h46l151 -380h-43l-77 203l-52 133h-4l-51 -133l-77 -203h-43z" />
    <glyph glyph-name="underscore" unicode="_" horiz-adv-x="500" 
d="M12 -117v38h476v-38h-476z" />
    <glyph glyph-name="grave" unicode="`" horiz-adv-x="535" 
d="M296 574l-144 151l34 29l134 -157z" />
    <glyph glyph-name="a" unicode="a" horiz-adv-x="491" 
d="M197 -12c-40.667 0 -74.001 11.168 -100.001 33.501s-39 55.166 -39 98.499c0 52.667 24.5 93 73.5 121s127.833 48 236.5 60c1.33301 101.333 -36.667 152 -114 152c-50.667 0 -101.667 -18.667 -153 -56l-20 33c58.667 41.333 118.334 62 179.001 62
c53.333 0 92 -16.833 116 -50.5s36 -78.5 36 -134.5v-307h-38l-4 62h-3c-62 -49.333 -118.667 -74 -170 -74zM204.999 26.001c47.333 0 101.667 26.001 163 78.001v163c-96 -11.333 -164.167 -28.5 -204.5 -51.5s-60.5 -54.167 -60.5 -93.5
c0 -32.667 9.5 -56.834 28.5 -72.501s43.5 -23.5 73.5 -23.5z" />
    <glyph glyph-name="b" unicode="b" horiz-adv-x="542" 
d="M280 -12c-46.667 0 -94.668 20.333 -144.001 61h-2l-5 -49h-37v719h44v-208l-2 -94c60 50 115.333 75 166 75c62.667 0 110.334 -21.833 143.001 -65.5s49 -103.5 49 -179.5c0 -78.667 -20.667 -141.5 -62 -188.5s-91.333 -70.5 -150 -70.5zM277.999 27
c48.667 0 88.667 20.5 120 61.5s47 93.833 47 158.5c0 63.333 -12.333 113.5 -37 150.5s-63 55.5 -115 55.5c-46 0 -98.333 -26.333 -157 -79v-285c48.667 -41.333 96 -62 142 -62z" />
    <glyph glyph-name="c" unicode="c" horiz-adv-x="449" 
d="M270 -12c-64 0 -116.333 22.5 -157 67.5s-61 106.167 -61 183.5s21.167 138.833 63.5 184.5s94.166 68.5 155.499 68.5c50.667 0 97.667 -19.667 141 -59l-26 -31c-36.667 34 -74.667 51 -114 51c-49.333 0 -90.666 -20 -123.999 -60s-50 -91.333 -50 -154
c0 -63.333 16 -114.5 48 -153.5s74 -58.5 126 -58.5c45.333 0 88 18.333 128 55l23 -31c-48 -42 -99 -63 -153 -63z" />
    <glyph glyph-name="d" unicode="d" horiz-adv-x="544" 
d="M251 -12c-61.333 0 -109.833 21.833 -145.5 65.5s-53.5 105.5 -53.5 185.5c0 75.333 20.833 136.333 62.5 183s91.834 70 150.501 70c27.333 0 51.666 -4.66699 72.999 -14s45.333 -24.333 72 -45l-2 88v198h44v-719h-38l-4 62h-3c-49.333 -49.333 -101.333 -74 -156 -74
zM257 27c48 0 98.334 26.333 151.001 79v285c-46.667 41.333 -93.334 62 -140.001 62c-48 0 -88.167 -20.5 -120.5 -61.5s-48.5 -91.833 -48.5 -152.5c0 -64.667 13.833 -116.167 41.5 -154.5s66.5 -57.5 116.5 -57.5z" />
    <glyph glyph-name="e" unicode="e" horiz-adv-x="483" 
d="M274 -12c-63.333 0 -116.167 22.667 -158.5 68s-63.5 106.333 -63.5 183c0 75.333 20.833 136.333 62.5 183s90.5 70 146.5 70c57.333 0 102.333 -19.5 135 -58.5s49 -93.5 49 -163.5c0 -16 -0.666992 -28 -2 -36h-346c1.33301 -61.333 18.5 -111.333 51.5 -150
s76.167 -58 129.5 -58c46 0 89 14.333 129 43l18 -34c-52 -31.333 -102.333 -47 -151 -47zM96.999 270h306c0 60 -12.5 105.667 -37.5 137s-59.5 47 -103.5 47c-42.667 0 -79.667 -16.667 -111 -50s-49.333 -78 -54 -134z" />
    <glyph glyph-name="f" unicode="f" horiz-adv-x="263" 
d="M288 715l-11.999 -35.999c-18.667 9.33301 -38 14 -58 14c-50 0 -75 -36.333 -75 -109v-104h111v-38h-111v-442h-44v442h-66v34l66 4v107c0 47.333 10.333 83.166 31 107.499s50 36.5 88 36.5c23.333 0 46.666 -5.33301 69.999 -16z" />
    <glyph glyph-name="g" unicode="g" horiz-adv-x="487" 
d="M249 -231c-60.667 0 -108.666 11.9971 -143.999 35.9971s-53 56.333 -53 97c0 42.667 23.667 81.334 71 116.001v4c-28 16.667 -42 42.334 -42 77.001c0 34 17.333 63.333 52 88v4c-40 34.667 -60 78.667 -60 132c0 48.667 16.333 89 49 121s72.667 48 120 48
c22 0 43 -4 63 -12h163v-37h-112c35.333 -30.667 53 -71 53 -121c0 -48.667 -16 -89 -48 -121s-71.667 -48 -119 -48c-30.667 0 -57.334 6.66699 -80.001 20c-26 -21.333 -39 -44.333 -39 -69c0 -42 30.667 -63 92 -63h103c54 0 93.833 -8.83301 119.5 -26.5
s38.5 -45.5 38.5 -83.5c0 -43.333 -21.167 -81.166 -63.5 -113.499s-96.833 -48.5 -163.5 -48.5zM242.001 187.997c34 0 63.167 12.667 87.5 38s36.5 57.666 36.5 96.999s-12 71.333 -36 96s-53.333 37 -88 37c-35.333 0 -65 -12.167 -89 -36.5s-36 -56.5 -36 -96.5
c0 -39.333 12.167 -71.666 36.5 -96.999s53.833 -38 88.5 -38zM254.001 -195.003c52 0 94.5 12.334 127.5 37.001s49.5 52.667 49.5 84c0 48.667 -37 73 -111 73h-103c-18 0 -38 2.66699 -60 8c-42 -28.667 -63 -62.334 -63 -101.001c0 -30.667 14.167 -55.167 42.5 -73.5
s67.5 -27.5 117.5 -27.5z" />
    <glyph glyph-name="h" unicode="h" horiz-adv-x="528" 
d="M92 0v719.001h44v-314c58 58 113.333 87 166 87c49.333 0 85.833 -15.167 109.5 -45.5s35.5 -76.5 35.5 -138.5v-308h-44v302c0 51.333 -8.66699 89.166 -26 113.499s-45.333 36.5 -84 36.5c-27.333 0 -52.5 -7 -75.5 -21s-50.167 -37 -81.5 -69v-362h-44z" />
    <glyph glyph-name="i" unicode="i" horiz-adv-x="229" 
d="M92 0v480h44v-480h-44zM115 596c-11.333 0 -20.833 3.66699 -28.5 11s-11.5 16.666 -11.5 27.999c0 12 3.83301 21.667 11.5 29s17.167 11 28.5 11s20.833 -3.66699 28.5 -11s11.5 -17 11.5 -29c0 -11.333 -3.83301 -20.666 -11.5 -27.999s-17.167 -11 -28.5 -11z" />
    <glyph glyph-name="j" unicode="j" horiz-adv-x="229" 
d="M29 -229c-21.333 0 -42 3.99902 -62 11.999l11 36c20 -6.66699 36.667 -10 50 -10c25.333 0 42.333 8.83301 51 26.5s13 43.834 13 78.501v566h45v-569c0 -93.333 -36 -140 -108 -140zM115 595.999c-10.667 0 -20 3.66699 -28 11s-12 16.666 -12 27.999
c0 12 4 21.667 12 29s17.333 11 28 11c11.333 0 21 -3.66699 29 -11s12 -17 12 -29c0 -11.333 -4 -20.666 -12 -27.999s-17.667 -11 -29 -11z" />
    <glyph glyph-name="k" unicode="k" horiz-adv-x="464" 
d="M92 0v719h44v-530h2l237 291h51l-156 -190l182 -290h-49l-159 257l-108 -126v-131h-44z" />
    <glyph glyph-name="l" unicode="l" horiz-adv-x="237" 
d="M151 -12c-39.333 0 -59 25.333 -59 76v655h44v-661c0 -20.667 7 -31 21 -31c5.33301 0 11.333 0.666992 18 2l8 -36c-10 -3.33301 -20.667 -5 -32 -5z" />
    <glyph glyph-name="m" unicode="m" horiz-adv-x="812" 
d="M92 0l0.000976562 480.001h38l4 -74h3c50 57.333 100.333 86 151 86c70 0 114.333 -32.667 133 -98c60 65.333 114.333 98 163 98c96 0 144 -61.333 144 -184v-308h-45v302c0 100 -35.667 150 -107 150c-42.667 0 -90.667 -30 -144 -90v-362h-44v302
c0 51.333 -8.83301 89.166 -26.5 113.499s-44.834 36.5 -81.501 36.5c-42.667 0 -90.667 -30 -144 -90v-362h-44z" />
    <glyph glyph-name="n" unicode="n" horiz-adv-x="532" 
d="M92 0v480.001h38l4 -74h3c57.333 57.333 112.333 86 165 86c49.333 0 85.833 -15.167 109.5 -45.5s35.5 -76.5 35.5 -138.5v-308h-44v302c0 51.333 -8.66699 89.166 -26 113.499s-45.333 36.5 -84 36.5c-27.333 0 -52.5 -7 -75.5 -21s-50.167 -37 -81.5 -69v-362h-44z
" />
    <glyph glyph-name="o" unicode="o" horiz-adv-x="535" 
d="M267 -12c-60 0 -110.833 22.667 -152.5 68s-62.5 106.333 -62.5 183c0 77.333 20.833 138.833 62.5 184.5s92.5 68.5 152.5 68.5c60.667 0 111.834 -22.833 153.501 -68.5s62.5 -107.167 62.5 -184.5c0 -76.667 -20.833 -137.667 -62.5 -183s-92.834 -68 -153.501 -68z
M267 27c48.667 0 89.167 19.667 121.5 59s48.5 90.333 48.5 153s-16.167 114 -48.5 154s-72.833 60 -121.5 60s-89 -19.833 -121 -59.5s-48 -91.167 -48 -154.5c0 -62.667 16 -113.667 48 -153s72.333 -59 121 -59z" />
    <glyph glyph-name="p" unicode="p" horiz-adv-x="544" 
d="M136 374v-285c50.667 -41.333 98 -62 142 -62c48.667 0 88.667 20.5 120 61.5s47 93.833 47 158.5c0 63.333 -12.333 113.5 -37 150.5s-63 55.5 -115 55.5c-44.667 0 -97 -26.333 -157 -79zM92 -217l-0.000976562 697h38l4 -60h3c60.667 48 115 72 163 72
c62.667 0 110.334 -21.833 143.001 -65.5s49 -103.5 49 -179.5c0 -78.667 -20.667 -141.5 -62 -188.5s-91.333 -70.5 -150 -70.5c-42.667 0 -90.667 19.667 -144 59v-264h-44z" />
    <glyph glyph-name="q" unicode="q" horiz-adv-x="544" 
d="M408 -217l-0.000976562 185l2 95c-52.667 -50 -105.667 -75 -159 -75c-61.333 0 -109.833 21.833 -145.5 65.5s-53.5 105.5 -53.5 185.5c0 75.333 20.833 136.333 62.5 183s91.834 70 150.501 70c47.333 0 95 -18.667 143 -56h2l5 44h37v-697h-44zM256.999 27
c48 0 98.334 26.333 151.001 79v285c-46.667 41.333 -93.334 62 -140.001 62c-48 0 -88.167 -20.5 -120.5 -61.5s-48.5 -91.833 -48.5 -152.5c0 -64.667 13.833 -116.167 41.5 -154.5s66.5 -57.5 116.5 -57.5z" />
    <glyph glyph-name="r" unicode="r" horiz-adv-x="317" 
d="M92 0v480h38l4 -89h3c36.667 67.333 82 101 136 101c18.667 0 34.667 -3.33301 48 -10l-10 -40c-14 5.33301 -28.667 8 -44 8c-53.333 0 -97 -41 -131 -123v-327h-44z" />
    <glyph glyph-name="s" unicode="s" horiz-adv-x="405" 
d="M208 -12c-64.667 0 -123.332 22.002 -175.999 66.002l26 33c49.333 -40.667 100.333 -61 153 -61c36 0 64 9.16699 84 27.5s30 40.833 30 67.5s-10.5 47.667 -31.5 63s-49.5 29.666 -85.5 42.999c-19.333 6.66699 -34.333 12.167 -45 16.5s-24 10.666 -40 18.999
s-28 16.833 -36 25.5s-15.333 19.5 -22 32.5s-10 27.5 -10 43.5c0 36.667 13.833 67.167 41.5 91.5s65.5 36.5 113.5 36.5c51.333 0 97 -16.667 137 -50l-24 -31c-38 28.667 -76.333 43 -115 43c-34.667 0 -61.334 -8.5 -80.001 -25.5s-28 -37.5 -28 -61.5
c0 -13.333 2.83301 -25 8.5 -35s14.834 -19 27.501 -27s24 -14.167 34 -18.5s24.333 -9.83301 43 -16.5c55.333 -20.667 91.666 -37.667 108.999 -51c32 -24 48 -56 48 -96c0 -38 -14.5 -70 -43.5 -96s-68.5 -39 -118.5 -39z" />
    <glyph glyph-name="t" unicode="t" horiz-adv-x="312" 
d="M223 -12c-44 0 -75.001 12.499 -93.001 37.499s-27 60.833 -27 107.5v309h-75v34l76 4l6 139h38v-139h139v-38h-139v-313c0 -33.333 5.83301 -58.666 17.5 -75.999s32.834 -26 63.501 -26c18.667 0 38.667 5 60 15l12 -36c-33.333 -12 -59.333 -18 -78 -18z" />
    <glyph glyph-name="u" unicode="u" horiz-adv-x="529" 
d="M230 -12c-49.333 0 -85.833 15.166 -109.5 45.499s-35.5 76.5 -35.5 138.5v308h44v-302c0 -51.333 8.66699 -89.166 26 -113.499s45 -36.5 83 -36.5c28 0 53.667 7.66699 77 23s49.333 40.333 78 75v354h44v-480h-37l-5 80h-2c-52.667 -61.333 -107 -92 -163 -92z" />
    <glyph glyph-name="v" unicode="v" horiz-adv-x="434" 
d="M192 0l-179.999 480h48l108 -301l26 -74c11.333 -32 18.666 -53.333 21.999 -64h4l49 138l108 301h45l-178 -480h-52z" />
    <glyph glyph-name="w" unicode="w" horiz-adv-x="685" 
d="M166 0l-141.997 479.999h48l86 -311c14.667 -53.333 25.667 -96 33 -128h4l10.5 40c3.66699 14 8 29.667 13 47s8.83301 31 11.5 41l87 311h53l87 -311l19.5 -69.5l16.5 -58.5h4l16.5 61.5c7.66699 28.333 13.5 50.5 17.5 66.5l85 311h45l-138 -480h-58l-84 298
c-4.66699 16 -10.834 39 -18.501 69s-13.834 52.667 -18.501 68h-4c-12.667 -53.333 -25.334 -99.666 -38.001 -138.999l-83 -296h-53z" />
    <glyph glyph-name="x" unicode="x" horiz-adv-x="407" 
d="M14 0l163 250.998l-150 229h49l78 -122l51 -79h4c6 8.66699 14.167 21.834 24.5 39.501s18.5 30.834 24.5 39.501l75 122h46l-149 -233l163 -247h-49l-85 131c-20.667 34 -39.667 63.333 -57 88h-4c-7.33301 -10.667 -17.5 -26.667 -30.5 -48l-24.5 -40l-82 -131h-47z
" />
    <glyph glyph-name="y" unicode="y" horiz-adv-x="436" 
d="M73 -219c-18 0 -34.332 3.33301 -48.999 10l10 39c13.333 -5.33301 26.333 -8 39 -8c54 0 95 42.333 123 127l13 42l-197 489h48l116 -302c25.333 -67.333 42.666 -112 51.999 -134h4c3.33301 9.33301 18 54 44 134l103 302h45l-190 -540
c-35.333 -106 -89 -159 -161 -159z" />
    <glyph glyph-name="z" unicode="z" horiz-adv-x="404" 
d="M27 0v24l284 418h-253v38h310v-23l-283 -418h293v-39h-351z" />
    <glyph glyph-name="braceleft" unicode="{" horiz-adv-x="279" 
d="M224 -152c-38.667 0 -66.834 9.16797 -84.501 27.501s-26.5 51.833 -26.5 100.5c0 25.333 1.33301 60.166 4 104.499s4 77.833 4 100.5c0 54 -28.667 81 -86 81v32c57.333 0 86 26.333 86 79c0 23.333 -1.33301 57.5 -4 102.5s-4 79.833 -4 104.5
c0 48.667 8.83301 82.167 26.5 100.5s45.834 27.5 84.501 27.5h34v-29h-31c-29.333 0 -49.5 -8 -60.5 -24s-16.5 -42.333 -16.5 -79c0 -21.333 1 -52.5 3 -93.5s3 -73.833 3 -98.5c0 -30.667 -3.66699 -54.167 -11 -70.5s-20.666 -27.5 -39.999 -33.5v-4
c19.333 -6 32.666 -17.333 39.999 -34s11 -40 11 -70c0 -24.667 -1 -57.5 -3 -98.5s-3 -72.167 -3 -93.5c0 -36.667 5.5 -63 16.5 -79s31.167 -24 60.5 -24h31v-29h-34z" />
    <glyph glyph-name="bar" unicode="|" horiz-adv-x="226" 
d="M95 -250v1000h36v-1000h-36z" />
    <glyph glyph-name="braceright" unicode="}" horiz-adv-x="279" 
d="M21 -152l0.000976562 28.998h31c29.333 0 49.5 8 60.5 24s16.5 42.333 16.5 79c0 21.333 -1 52.5 -3 93.5s-3 73.833 -3 98.5c0 58.667 17 93.334 51 104.001v4c-18.667 6 -31.834 17.167 -39.501 33.5s-11.5 39.833 -11.5 70.5c0 24.667 1 57.5 3 98.5s3 72.167 3 93.5
c0 36.667 -5.5 63 -16.5 79s-31.167 24 -60.5 24h-31v29h34c38.667 0 66.834 -9.16699 84.501 -27.5s26.5 -51.833 26.5 -100.5c0 -24.667 -1.33301 -59.5 -4 -104.5s-4 -79.167 -4 -102.5c0 -52.667 28.667 -79 86 -79v-32c-57.333 0 -86 -27 -86 -81
c0 -22.667 1.33301 -56.167 4 -100.5s4 -79.166 4 -104.499c0 -48.667 -8.83301 -82.167 -26.5 -100.5s-45.834 -27.5 -84.501 -27.5h-34z" />
    <glyph glyph-name="asciitilde" unicode="~" 
d="M329 266c-22 0 -44.001 7.5 -66.001 22.5s-42.667 30 -62 45s-37 22.5 -53 22.5c-31.333 0 -57.666 -21 -78.999 -63l-29 18c28.667 55.333 65.334 83 110.001 83c22 0 44 -7.5 66 -22.5s42.667 -30 62 -45s37 -22.5 53 -22.5c31.333 0 57.666 21 78.999 63l28 -20
c-13.333 -26 -29.833 -46 -49.5 -60s-39.5 -21 -59.5 -21z" />
    <glyph glyph-name="uni0400" unicode="&#x400;" horiz-adv-x="515" 
d="M97 0v659h361v-40h-315v-249h264v-40h-264v-290h325v-40h-371zM303 706l-133 113l28 33l125 -123z" />
    <glyph glyph-name="uni0401" unicode="&#x401;" horiz-adv-x="515" 
d="M184 725c-10.667 0 -19.334 3.33301 -26.001 10s-10 15.334 -10 26.001c0 11.333 3.33301 20.333 10 27s15.334 10 26.001 10s19.5 -3.33301 26.5 -10s10.5 -15.667 10.5 -27c0 -10.667 -3.5 -19.334 -10.5 -26.001s-15.833 -10 -26.5 -10zM380 725
c-10.667 0 -19.5 3.33301 -26.5 10s-10.5 15.334 -10.5 26.001c0 11.333 3.5 20.333 10.5 27s15.833 10 26.5 10s19.334 -3.33301 26.001 -10s10 -15.667 10 -27c0 -10.667 -3.33301 -19.334 -10 -26.001s-15.334 -10 -26.001 -10zM97 0v659h361v-40h-315v-249h264v-40h-264
v-290h325v-40h-371z" />
    <glyph glyph-name="uni0402" unicode="&#x402;" horiz-adv-x="679" 
d="M449 -12c-19.333 0 -39.668 3.33203 -61.001 9.99902l10 40c13.333 -6 29 -9 47 -9c34.667 0 65.167 13 91.5 39s39.5 67.333 39.5 124c0 110 -63 165 -189 165c-38.667 0 -79.334 -4 -122.001 -12v-345h-46v619h-190v40h479v-40h-243v-233
c41.333 7.33301 83.333 11 126 11c72.667 0 129.5 -16.833 170.5 -50.5s61.5 -85.167 61.5 -154.5c0 -37.333 -5.16699 -69.666 -15.5 -96.999s-24.166 -48.5 -41.499 -63.5s-35.666 -26 -54.999 -33s-40 -10.5 -62 -10.5z" />
    <glyph glyph-name="uni0403" unicode="&#x403;" horiz-adv-x="485" 
d="M97 0v659h359v-40h-313v-619h-46zM266 706l-20 23l125 123l28 -33z" />
    <glyph glyph-name="uni0404" unicode="&#x404;" horiz-adv-x="564" 
d="M500 111l26.998 -28.999c-55.333 -62.667 -120.666 -94 -195.999 -94c-84.667 0 -151.834 30.167 -201.501 90.5s-74.5 144.5 -74.5 252.5c0 107.333 25.167 190.833 75.5 250.5s118.5 89.5 204.5 89.5c36 0 69 -7.5 99 -22.5s54.667 -33.833 74 -56.5l-27 -31
c-40 45.333 -88.667 68 -146 68c-68.667 0 -123.334 -22.667 -164.001 -68s-63.667 -109 -69 -191h302v-40h-303c0.666992 -96.667 21.334 -170.834 62.001 -222.501s97.334 -77.5 170.001 -77.5c62.667 0 118.334 27 167.001 81z" />
    <glyph glyph-name="uni0405" unicode="&#x405;" horiz-adv-x="521" 
d="M269 -12c-89.333 0 -163.666 32.998 -222.999 98.998l30 32c52.667 -59.333 117 -89 193 -89c50 0 89.833 12.167 119.5 36.5s44.5 56.166 44.5 95.499c0 20 -2.83301 37.333 -8.5 52s-14.834 27.334 -27.501 38.001s-24.5 19 -35.5 25s-26.5 13.667 -46.5 23l-100 45
c-18 8 -33.333 15.833 -46 23.5s-26.5 17.834 -41.5 30.501s-26.5 28.334 -34.5 47.001s-12 39.667 -12 63c0 47.333 18.167 86.166 54.5 116.499s82.166 45.5 137.499 45.5c73.333 0 134.333 -26.333 183 -79l-26 -30c-43.333 44.667 -95.666 67 -156.999 67
c-44 0 -79.333 -10.667 -106 -32s-40 -50 -40 -86c0 -18 3.16699 -34 9.5 -48s16.5 -26.167 30.5 -36.5s25.5 -18 34.5 -23s22.167 -11.5 39.5 -19.5l100 -44c44.667 -20 79 -42.667 103 -68s36 -61 36 -107c0 -51.333 -19.333 -93.666 -58 -126.999s-89.667 -50 -153 -50z
" />
    <glyph glyph-name="uni0406" unicode="&#x406;" horiz-adv-x="240" 
d="M97 0v659h46v-659h-46z" />
    <glyph glyph-name="uni0407" unicode="&#x407;" horiz-adv-x="240" 
d="M97 0v659h46v-659h-46zM22 725c-10.667 0 -19.334 3.33301 -26.001 10s-10 15.334 -10 26.001c0 11.333 3.33301 20.333 10 27s15.334 10 26.001 10s19.5 -3.33301 26.5 -10s10.5 -15.667 10.5 -27c0 -10.667 -3.5 -19.334 -10.5 -26.001s-15.833 -10 -26.5 -10zM218 725
c-10.667 0 -19.5 3.33301 -26.5 10s-10.5 15.334 -10.5 26.001c0 11.333 3.5 20.333 10.5 27s15.833 10 26.5 10s19.334 -3.33301 26.001 -10s10 -15.667 10 -27c0 -10.667 -3.33301 -19.334 -10 -26.001s-15.334 -10 -26.001 -10z" />
    <glyph glyph-name="uni0408" unicode="&#x408;" horiz-adv-x="462" 
d="M203 -12c-73.333 0 -127.333 32.333 -162 97l35 23c30 -52 72.333 -78 127 -78c40 0 69.667 12.333 89 37s29 63.667 29 117v475h46v-480c0 -57.333 -13.167 -103.5 -39.5 -138.5s-67.833 -52.5 -124.5 -52.5z" />
    <glyph glyph-name="uni0409" unicode="&#x409;" horiz-adv-x="894" 
d="M498 39h103.999c66.667 0 116.334 12.5 149.001 37.5s49 63.833 49 116.5c0 48 -16.833 83.333 -50.5 106s-84.167 34 -151.5 34h-100v-294zM497.999 372l112.004 0.000976562c74 0 131.667 -14.5 173 -43.5s62 -73.5 62 -133.5c0 -64 -19.833 -112.5 -59.5 -145.5
s-96.834 -49.5 -171.501 -49.5h-162v619h-194l-35 -199.5c-15.333 -89.667 -27.333 -157.834 -36 -204.501c-11.333 -62 -23.666 -109.833 -36.999 -143.5s-27.333 -56 -42 -67s-33.334 -16.5 -56.001 -16.5c-14.667 0 -29.667 2.66699 -45 8l12 44
c11.333 -3.33301 20.666 -5 27.999 -5c13.333 0 24.666 4 33.999 12s19.333 26 30 54s21 68.333 31 121c23.333 120 49.666 265.667 78.999 437h277v-287z" />
    <glyph glyph-name="uni040A" unicode="&#x40a;" horiz-adv-x="927" 
d="M532 39h102.998c66.667 0 116.334 12.5 149.001 37.5s49 63.833 49 116.5c0 48 -16.667 83.333 -50 106s-83.666 34 -150.999 34h-100v-294zM531.998 372h112.001c74 0 131.5 -14.5 172.5 -43.5s61.5 -73.5 61.5 -133.5c0 -64 -19.833 -112.5 -59.5 -145.5
s-96.834 -49.5 -171.501 -49.5h-161v330h-343v-330h-46v659h46v-289h343v289h46v-287z" />
    <glyph glyph-name="uni040B" unicode="&#x40b;" horiz-adv-x="683" 
d="M265 619v-233c41.333 7.33301 83 11 125 11c148 0 222 -65.667 222 -197v-200h-45v200c0 55.333 -14.833 95.333 -44.5 120s-75.167 37 -136.5 37c-38 0 -78.333 -4 -121 -12v-345h-46v619h-190v40h479v-40h-243z" />
    <glyph glyph-name="uni040C" unicode="&#x40c;" horiz-adv-x="555" 
d="M424 820l-133 -113l-20 23l125 123zM318 352l231.999 -351.999h-52l-219 331h-136v-331h-46v659h46v-289h138l96 176c28 51.333 50.667 85 68 101s39 24 65 24c9.33301 0 18 -1.66699 26 -5l-8 -46c-6 2.66699 -13 4 -21 4c-15.333 0 -29.166 -5.83301 -41.499 -17.5
s-29.833 -37.834 -52.5 -78.501z" />
    <glyph glyph-name="uni040D" unicode="&#x40d;" horiz-adv-x="644" 
d="M97 0v659h46v-404c0 -42.667 -2 -106.667 -6 -192h4l75 130l282 466h49v-659h-46v409c0 18.667 0.333008 38.5 1 59.5s1.5 44 2.5 69s1.83301 44.5 2.5 58.5h-4l-74 -129l-283 -467h-49zM347 707l-133 113l28 33l125 -123z" />
    <glyph glyph-name="uni040E" unicode="&#x40e;" horiz-adv-x="491" 
d="M123 -12c-21.333 0 -39.334 2.99902 -54.001 8.99902l12 43c10 -4 22.333 -6 37 -6c25.333 0 45.333 5.16699 60 15.5s27.334 27.5 38.001 51.5l17 43l-226 515h49l150 -352l47 -113h4l43 113l138 352h48l-223 -557c-14.667 -37.333 -33 -65.666 -55 -84.999
s-50.333 -29 -85 -29zM239.999 709.999c-83.333 0 -128.668 42.667 -136.001 128h42c1.33301 -28.667 9.5 -52.167 24.5 -70.5s38.167 -27.5 69.5 -27.5s54.5 9.16699 69.5 27.5s23.167 41.833 24.5 70.5h42c-7.33301 -85.333 -52.666 -128 -135.999 -128z" />
    <glyph glyph-name="uni040F" unicode="&#x40f;" horiz-adv-x="634" 
d="M537 659v-659h-194l-6 -188h-39v188h-201v659h46v-619h348v619h46z" />
    <glyph glyph-name="uni0410" unicode="&#x410;" horiz-adv-x="526" 
d="M146 265h234l-42 123c-30.667 88.667 -55 164.667 -73 228h-4c-18 -63.333 -42.333 -139.333 -73 -228zM470 0l-77 226h-261l-78 -226h-46l232 659h46l232 -659h-48z" />
    <glyph glyph-name="uni0411" unicode="&#x411;" horiz-adv-x="568" 
d="M97 0l-0.000976562 659h383v-40h-337v-249h146c74 0 131.667 -14.333 173 -43s62 -73 62 -133c0 -64 -19.667 -112.333 -59 -145s-96.666 -49 -171.999 -49h-196zM142.999 38h138c131.333 0 197 51.333 197 154c0 48.667 -16.5 84.167 -49.5 106.5
s-83.5 33.5 -151.5 33.5h-134v-294z" />
    <glyph glyph-name="uni0412" unicode="&#x412;" horiz-adv-x="578" 
d="M97 0l0.000976562 658.998h178c68.667 0 122.167 -13.333 160.5 -40s57.5 -66.667 57.5 -120c0 -35.333 -8.83301 -65.666 -26.5 -90.999s-42.834 -43 -75.501 -53v-4c44 -7.33301 78.667 -24.666 104 -51.999s38 -63 38 -107c0 -62 -21.833 -109.5 -65.5 -142.5
s-103.5 -49.5 -179.5 -49.5h-191zM143.001 368.998h114c126.667 0 190 41.667 190 125c0 45.333 -15.167 77.833 -45.5 97.5s-76.833 29.5 -139.5 29.5h-119v-252zM143.001 37.998l133 0.000976562c67.333 0 119.5 12.667 156.5 38s55.5 63.666 55.5 114.999
c0 93.333 -70.667 140 -212 140h-133v-293z" />
    <glyph glyph-name="uni0413" unicode="&#x413;" horiz-adv-x="485" 
d="M97 0v659h359v-40h-313v-619h-46z" />
    <glyph glyph-name="uni0414" unicode="&#x414;" horiz-adv-x="619" 
d="M470 619l-217 -0.000976562c-6.66699 -38.667 -15.667 -94.667 -27 -168s-21.333 -133 -30 -179c-21.333 -119.333 -46.333 -196.666 -75 -231.999h349v579zM516 39.999l70.001 0.000976562v-26l-7 -202h-39v188h-461v-188h-39l-7 202v26h30
c33.333 13.333 63.666 93.666 90.999 240.999c19.333 106.667 40 232.667 62 378h300v-619z" />
    <glyph glyph-name="uni0415" unicode="&#x415;" horiz-adv-x="515" 
d="M97 0v659h361v-40h-315v-249h264v-40h-264v-290h325v-40h-371z" />
    <glyph glyph-name="uni0416" unicode="&#x416;" horiz-adv-x="768" 
d="M552 354l207.003 -354h-53l-189 331h-111v-331h-44v331h-111l-189 -331h-53l207 354l-78 174c-18.667 40 -34.834 66 -48.501 78s-28.834 18 -45.501 18c-8 0 -15 -1.33301 -21 -4l-8 46c8 3.33301 16.667 5 26 5c26.667 0 49.667 -8.33301 69 -25
s40.666 -50 63.999 -100l81 -176h107v289h44v-289h107l80 176c23.333 50 44.833 83.333 64.5 100s42.834 25 69.501 25c9.33301 0 18 -1.66699 26 -5l-9 -46c-5.33301 2.66699 -12.333 4 -21 4c-16 0 -30.833 -6 -44.5 -18s-29.834 -38 -48.501 -78z" />
    <glyph glyph-name="uni0417" unicode="&#x417;" horiz-adv-x="548" 
d="M279 -12c-50 0 -93.1689 7.83301 -129.502 23.5s-70.833 40.834 -103.5 75.501l29 31c31.333 -32.667 62.333 -55.5 93 -68.5s67.667 -19.5 111 -19.5c50.667 0 93.167 13.667 127.5 41s51.5 64.666 51.5 111.999c0 49.333 -18.333 86.333 -55 111s-88.667 37 -156 37
h-67v38h47c67.333 0 116.833 11.333 148.5 34s47.5 56.667 47.5 102c0 38.667 -14 69 -42 91s-64 33 -108 33c-67.333 0 -122.666 -22.333 -165.999 -67l-26 31c21.333 22.667 49 41.334 83 56.001s70.333 22 109 22c56 0 102.5 -14.833 139.5 -44.5s55.5 -69.5 55.5 -119.5
c0 -36.667 -9.33301 -68.5 -28 -95.5s-44.667 -45.833 -78 -56.5v-4c42 -7.33301 76.167 -25.5 102.5 -54.5s39.5 -66.833 39.5 -113.5c0 -58.667 -21.667 -105.834 -65 -141.501s-96.666 -53.5 -159.999 -53.5z" />
    <glyph glyph-name="uni0418" unicode="&#x418;" horiz-adv-x="644" 
d="M97 0v659h46v-404c0 -42.667 -2 -106.667 -6 -192h4l75 130l282 466h49v-659h-46v409c0 18.667 0.333008 38.5 1 59.5s1.5 44 2.5 69s1.83301 44.5 2.5 58.5h-4l-74 -129l-283 -467h-49z" />
    <glyph glyph-name="uni0419" unicode="&#x419;" horiz-adv-x="644" 
d="M97 0v659h46v-404c0 -42.667 -2 -106.667 -6 -192h4l75 130l282 466h49v-659h-46v409c0 18.667 0.333008 38.5 1 59.5s1.5 44 2.5 69s1.83301 44.5 2.5 58.5h-4l-74 -129l-283 -467h-49zM326 711c-83.333 0 -128.668 42.667 -136.001 128h42
c1.33301 -28.667 9.5 -52.167 24.5 -70.5s38.167 -27.5 69.5 -27.5s54.5 9.16699 69.5 27.5s23.167 41.833 24.5 70.5h42c-7.33301 -85.333 -52.666 -128 -135.999 -128z" />
    <glyph glyph-name="uni041A" unicode="&#x41a;" horiz-adv-x="555" 
d="M318 352l231.999 -351.999h-52l-219 331h-136v-331h-46v659h46v-289h138l96 176c28 51.333 50.667 85 68 101s39 24 65 24c9.33301 0 18 -1.66699 26 -5l-8 -46c-6 2.66699 -13 4 -21 4c-15.333 0 -29.166 -5.83301 -41.499 -17.5s-29.833 -37.834 -52.5 -78.501z" />
    <glyph glyph-name="uni041B" unicode="&#x41b;" horiz-adv-x="614" 
d="M50 -12c-15.333 0 -29.998 2.66699 -43.998 8l12 44c11.333 -3.33301 20.666 -5 27.999 -5c20 0 37.167 12.167 51.5 36.5s28.833 74.5 43.5 150.5l78 437h298v-659h-46v619h-215c-8 -42.667 -19.667 -108.667 -35 -198l-36 -204
c-16.667 -90.667 -34.834 -151.5 -54.501 -182.5s-46.5 -46.5 -80.5 -46.5z" />
    <glyph glyph-name="uni041C" unicode="&#x41c;" horiz-adv-x="706" 
d="M97 0l0.000976562 659.001h65l138 -387c3.33301 -10 11.166 -32.167 23.499 -66.5l28.5 -79.5h4l24 69.5l26 76.5l137 387h66v-659h-45v433c0 45.333 2 104.666 6 177.999h-4l-51 -147l-142 -392h-40l-143 392l-52 147h-4c4 -110 6 -169.333 6 -178v-433h-43z" />
    <glyph glyph-name="uni041D" unicode="&#x41d;" horiz-adv-x="639" 
d="M97 0v659h46v-289h353v289h46v-659h-46v330h-353v-330h-46z" />
    <glyph glyph-name="uni041E" unicode="&#x41e;" horiz-adv-x="652" 
d="M326 -12c-80 0 -145.167 31.5 -195.5 94.5s-75.5 146.167 -75.5 249.5c0 102.667 25.167 184.834 75.5 246.501s115.5 92.5 195.5 92.5c80.667 0 146.167 -30.833 196.5 -92.5s75.5 -143.834 75.5 -246.501c0 -103.333 -25.333 -186.5 -76 -249.5s-116 -94.5 -196 -94.5z
M326 30c67.333 0 121.333 27.5 162 82.5s61 128.167 61 219.5c0 90.667 -20.333 162.834 -61 216.501s-94.667 80.5 -162 80.5s-121.333 -26.833 -162 -80.5s-61 -125.834 -61 -216.501c0 -91.333 20.333 -164.5 61 -219.5s94.667 -82.5 162 -82.5z" />
    <glyph glyph-name="uni041F" unicode="&#x41f;" horiz-adv-x="634" 
d="M97 0v659h440v-659h-46v619h-348v-619h-46z" />
    <glyph glyph-name="uni0420" unicode="&#x420;" horiz-adv-x="549" 
d="M97 0v658.999h166c78 0 137.333 -14.333 178 -43s61 -75.667 61 -141c0 -63.333 -20.5 -111.166 -61.5 -143.499s-98.833 -48.5 -173.5 -48.5h-124v-283h-46zM143 321.999l113 0.000976562c68 0 118.167 12.167 150.5 36.5s48.5 63.166 48.5 116.499
c0 54 -16.167 91.667 -48.5 113s-83.833 32 -154.5 32h-109v-298z" />
    <glyph glyph-name="uni0421" unicode="&#x421;" horiz-adv-x="564" 
d="M331 -12c-82 0 -148.501 31.167 -199.501 93.5s-76.5 145.5 -76.5 249.5s25.833 186.667 77.5 248s119.5 92 203.5 92c70 0 127.333 -26.333 172 -79l-27 -31c-40 45.333 -88 68 -144 68c-72.667 0 -129.834 -26.667 -171.501 -80s-62.5 -126 -62.5 -218
s20.667 -165.167 62 -219.5s97.333 -81.5 168 -81.5c62.667 0 118.334 27 167.001 81l27 -29c-55.333 -62.667 -120.666 -94 -195.999 -94z" />
    <glyph glyph-name="uni0422" unicode="&#x422;" horiz-adv-x="524" 
d="M239 0v619h-210v40h466v-40h-210v-619h-46z" />
    <glyph glyph-name="uni0423" unicode="&#x423;" horiz-adv-x="491" 
d="M123 -12c-21.333 0 -39.334 2.99902 -54.001 8.99902l12 43c10 -4 22.333 -6 37 -6c25.333 0 45.333 5.16699 60 15.5s27.334 27.5 38.001 51.5l17 43l-226 515h49l150 -352l47 -113h4l43 113l138 352h48l-223 -557c-14.667 -37.333 -33 -65.666 -55 -84.999
s-50.333 -29 -85 -29z" />
    <glyph glyph-name="uni0424" unicode="&#x424;" horiz-adv-x="713" 
d="M377 535v-411.001c78 0.666992 137.833 19.5 179.5 56.5s62.5 87.5 62.5 151.5c0 63.333 -20.833 112.833 -62.5 148.5s-101.5 53.834 -179.5 54.501zM336 123.999v411.001c-78 -0.666992 -137.833 -18.834 -179.5 -54.501s-62.5 -85.167 -62.5 -148.5
c0 -64 20.833 -114.5 62.5 -151.5s101.5 -55.833 179.5 -56.5zM377 671v-98c91.333 -0.666992 162.166 -22.167 212.499 -64.5s75.5 -101.166 75.5 -176.499c0 -76 -25.167 -135.833 -75.5 -179.5s-121.166 -65.834 -212.499 -66.501v-98h-41v98
c-91.333 0.666992 -162.166 22.834 -212.499 66.501s-75.5 103.5 -75.5 179.5c0 75.333 25.167 134.166 75.5 176.499s121.166 63.833 212.499 64.5v98h41z" />
    <glyph glyph-name="uni0425" unicode="&#x425;" horiz-adv-x="482" 
d="M17 0l197.999 341l-184 318h50l108 -194l54 -90h4l49 90l108 194h47l-184 -320l198 -339h-50l-115 202c-13.333 24.667 -33.666 59.667 -60.999 105h-4l-56 -105l-115 -202h-47z" />
    <glyph glyph-name="uni0426" unicode="&#x426;" horiz-adv-x="626" 
d="M523 40h70v-26l-7 -202h-39v188h-450v659h46v-619h334v619h46v-619z" />
    <glyph glyph-name="uni0427" unicode="&#x427;" horiz-adv-x="579" 
d="M436 0v311c-50 -7.33301 -94 -11 -132 -11c-76 0 -133.833 15.5 -173.5 46.5s-59.5 81.833 -59.5 152.5v160h45v-160c0 -58 16 -98.833 48 -122.5s80 -35.5 144 -35.5c47.333 0 90 3.66699 128 11v307h46v-659h-46z" />
    <glyph glyph-name="uni0428" unicode="&#x428;" horiz-adv-x="838" 
d="M97 0v659h46v-619h253v619h46v-619h253v619h46v-659h-644z" />
    <glyph glyph-name="uni0429" unicode="&#x429;" horiz-adv-x="843" 
d="M741 40h69v-26l-7 -202h-38v188h-668v659h46v-619h253v619h46v-619h253v619h46v-619z" />
    <glyph glyph-name="uni042A" unicode="&#x42a;" horiz-adv-x="714" 
d="M251 0l0.000976562 618.999h-222v40h268v-287h130c74 0 132.333 -14.667 175 -44s64 -73.666 64 -132.999c0 -64 -19.833 -112.5 -59.5 -145.5s-96.834 -49.5 -171.501 -49.5h-184zM297.001 38.999h126c66 0 115.333 12.5 148 37.5s49 63.833 49 116.5
c0 93.333 -68.333 140 -205 140h-118v-294z" />
    <glyph glyph-name="uni042B" unicode="&#x42b;" horiz-adv-x="766" 
d="M97 0v659h46v-287h124c74 0 131.667 -14.5 173 -43.5s62 -73.5 62 -133.5c0 -64 -20 -112.5 -60 -145.5s-97.333 -49.5 -172 -49.5h-173zM143 39h115.999c131.333 0 197 51.333 197 154c0 48 -16.667 83.333 -50 106s-83.666 34 -150.999 34h-112v-294zM622.999 0v659h46
v-659h-46z" />
    <glyph glyph-name="uni042C" unicode="&#x42c;" horiz-adv-x="568" 
d="M97 0v659h46v-287h142c74 0 131.667 -14.5 173 -43.5s62 -73.5 62 -133.5c0 -64 -20 -112.5 -60 -145.5s-97.333 -49.5 -172 -49.5h-191zM143 39h133.999c131.333 0 197 51.333 197 154c0 48 -16.667 83.333 -50 106s-83.666 34 -150.999 34h-130v-294z" />
    <glyph glyph-name="uni042D" unicode="&#x42d;" horiz-adv-x="564" 
d="M84 561l-27 31c20 22 46.833 40.667 80.5 56s69.167 23 106.5 23c82.667 0 147.667 -29.667 195 -89s71 -143 71 -251c0 -107.333 -24 -191.333 -72 -252s-112.333 -91 -193 -91s-149.667 31.333 -207 94l27 29c50.667 -54 110 -81 178 -81s121.667 26 161 78
s59.333 126 60 222h-304v40h303c-4.66699 82 -26 145.667 -64 191s-90 68 -156 68c-64 0 -117 -22.667 -159 -68z" />
    <glyph glyph-name="uni042E" unicode="&#x42e;" horiz-adv-x="883" 
d="M569 30c64 0 115.167 27.5 153.5 82.5s57.5 128.167 57.5 219.5c0 90.667 -19.167 162.834 -57.5 216.501s-89.5 80.5 -153.5 80.5c-64.667 0 -116.167 -26.833 -154.5 -80.5s-57.5 -125.834 -57.5 -216.501c0 -91.333 19.167 -164.5 57.5 -219.5
s89.833 -82.5 154.5 -82.5zM143 370h169c6 92.667 32.333 166 79 220s106 81 178 81c77.333 0 139.833 -30.667 187.5 -92s71.5 -143.666 71.5 -246.999c0 -104 -23.833 -187.333 -71.5 -250s-110.167 -94 -187.5 -94c-76.667 0 -138.667 31.167 -186 93.5
s-71.333 145.166 -72 248.499h-168v-330h-46v659h46v-289z" />
    <glyph glyph-name="uni042F" unicode="&#x42f;" horiz-adv-x="562" 
d="M418 341v279h-130c-60.667 0 -106 -10.5 -136 -31.5s-45 -55.5 -45 -103.5c0 -96 60.333 -144 181 -144h130zM276 659h188v-659h-46v303h-147l-189 -303h-54l194 307c-50 7.33301 -89.667 26 -119 56s-44 70.667 -44 122c0 116 72.333 174 217 174z" />
    <glyph glyph-name="uni0430" unicode="&#x430;" horiz-adv-x="491" 
d="M197 -12c-40.667 0 -74.001 11.168 -100.001 33.501s-39 55.166 -39 98.499c0 52.667 24.5 93 73.5 121s127.833 48 236.5 60c1.33301 101.333 -36.667 152 -114 152c-50.667 0 -101.667 -18.667 -153 -56l-20 33c58.667 41.333 118.334 62 179.001 62
c53.333 0 92 -16.833 116 -50.5s36 -78.5 36 -134.5v-307h-38l-4 62h-3c-62 -49.333 -118.667 -74 -170 -74zM204.999 26.001c47.333 0 101.667 26.001 163 78.001v163c-96 -11.333 -164.167 -28.5 -204.5 -51.5s-60.5 -54.167 -60.5 -93.5
c0 -32.667 9.5 -56.834 28.5 -72.501s43.5 -23.5 73.5 -23.5z" />
    <glyph glyph-name="uni0431" unicode="&#x431;" horiz-adv-x="534" 
d="M279 27c44 0 81 20 111 60s45 91 45 153c0 56 -13.833 101.5 -41.5 136.5s-66.5 52.5 -116.5 52.5c-62 0 -119.667 -34.333 -173 -103c-0.666992 -9.33301 -1 -24.333 -1 -45c0 -80 14.833 -142.333 44.5 -187s73.5 -67 131.5 -67zM449 730l11 -43.998
c-22 -12 -52.667 -21 -92 -27c-24.667 -4 -43.834 -7.33301 -57.501 -10s-30 -6.5 -49 -11.5s-33.667 -10.667 -44 -17s-22 -14.333 -35 -24s-23 -21 -30 -34s-14.167 -28.5 -21.5 -46.5s-12.833 -38.833 -16.5 -62.5s-6.5 -50.5 -8.5 -80.5
c49.333 62.667 108.666 94 177.999 94c60.667 0 108.667 -20.667 144 -62s53 -96.333 53 -165c0 -75.333 -19.5 -136.166 -58.5 -182.499s-86.833 -69.5 -143.5 -69.5c-69.333 0 -123.166 25.667 -161.499 77s-57.5 124.666 -57.5 219.999c0 49.333 2.5 93.166 7.5 131.499
s11.333 71.166 19 98.499s18.834 51.166 33.501 71.499s29.167 36.833 43.5 49.5s33 23.667 56 33s44.5 16.333 64.5 21s45 9.33398 75 14.001c36.667 5.33301 66.667 14 90 26z" />
    <glyph glyph-name="uni0432" unicode="&#x432;" horiz-adv-x="496" 
d="M92 0v480h173c111.333 0 167 -39.333 167 -118c0 -53.333 -26.333 -88.333 -79 -105v-3c28.667 -6.66699 52.667 -19.667 72 -39s29 -45.333 29 -78c0 -45.333 -16.167 -79.5 -48.5 -102.5s-77.5 -34.5 -135.5 -34.5h-178zM136 270h112c92.667 0 139 29.333 139 88
c0 57.333 -43.333 86 -130 86h-121v-174zM136 36h125c98 0 147 34.333 147 103c0 30.667 -13.333 54.167 -40 70.5s-65 24.5 -115 24.5h-117v-198z" />
    <glyph glyph-name="uni0433" unicode="&#x433;" horiz-adv-x="399" 
d="M92 0v480h281v-38h-237v-442h-44z" />
    <glyph glyph-name="uni0434" unicode="&#x434;" horiz-adv-x="501" 
d="M180 442l-21.999 -194c-12.667 -104 -32.334 -173.667 -59.001 -209h265v403h-184zM408.001 39h65.999v-26l-6 -185h-38v172h-362v-172h-39l-5 185v26h20c16.667 8.66699 30.834 27.5 42.501 56.5s22.167 81.833 31.5 158.5l27 226h263v-441z" />
    <glyph glyph-name="uni0435" unicode="&#x435;" horiz-adv-x="483" 
d="M274 -12c-63.333 0 -116.167 22.667 -158.5 68s-63.5 106.333 -63.5 183c0 75.333 20.833 136.333 62.5 183s90.5 70 146.5 70c57.333 0 102.333 -19.5 135 -58.5s49 -93.5 49 -163.5c0 -16 -0.666992 -28 -2 -36h-346c1.33301 -61.333 18.5 -111.333 51.5 -150
s76.167 -58 129.5 -58c46 0 89 14.333 129 43l18 -34c-52 -31.333 -102.333 -47 -151 -47zM96.999 270h306c0 60 -12.5 105.667 -37.5 137s-59.5 47 -103.5 47c-42.667 0 -79.667 -16.667 -111 -50s-49.333 -78 -54 -134z" />
    <glyph glyph-name="uni0436" unicode="&#x436;" horiz-adv-x="634" 
d="M467 256l149.997 -256h-49l-132 231h-99v-231h-40v231h-99l-132 -231h-49l150 257l-45 114c-12 30 -23.833 50.167 -35.5 60.5s-24.5 15.5 -38.5 15.5c-6 0 -11 -0.666992 -15 -2l-10 43c6.66699 2.66699 14.334 4 23.001 4c22.667 0 42.834 -7.66699 60.501 -23
s34.167 -42.333 49.5 -81l47 -118h94v210h40v-210h93l48 118c15.333 38.667 31.833 65.667 49.5 81s37.834 23 60.501 23c8 0 15.333 -1.33301 22 -4l-9 -43c-4 1.33301 -9 2 -15 2c-14.667 0 -27.667 -5.16699 -39 -15.5s-23 -30.5 -35 -60.5z" />
    <glyph glyph-name="uni0437" unicode="&#x437;" horiz-adv-x="444" 
d="M221 -12c-72 0 -131.669 21.001 -179.002 63.001l23 31c42 -37.333 93 -56 153 -56c38.667 0 71.334 9.83301 98.001 29.5s40 45.167 40 76.5c0 33.333 -13.167 58.666 -39.5 75.999s-63.833 26 -112.5 26h-60v36h47c46.667 0 82.334 8.33301 107.001 25s37 39.667 37 69
s-10.667 51.666 -32 66.999s-49.333 23 -84 23c-50 0 -97 -16 -141 -48l-23 31c50 36.667 105 55 165 55c46 0 84.167 -10.833 114.5 -32.5s45.5 -52.167 45.5 -91.5c0 -50.667 -27.333 -87.667 -82 -111v-4c30.667 -8 55.667 -22.167 75 -42.5s29 -47.166 29 -80.499
c0 -42 -17.5 -76.167 -52.5 -102.5s-77.833 -39.5 -128.5 -39.5z" />
    <glyph glyph-name="uni0438" unicode="&#x438;" horiz-adv-x="554" 
d="M92 0v480h44v-240c0 -14 -1.66699 -74.333 -5 -181h4c6 10 17.333 27.333 34 52s28 42 34 52l216 317h43v-480h-44v240c0 16 1.66699 76.333 5 181h-4l-34 -52l-34 -52l-216 -317h-43z" />
    <glyph glyph-name="uni0439" unicode="&#x439;" horiz-adv-x="554" 
d="M279 574c-50 0 -86.333 14.5 -109 43.5s-35.334 63.167 -38.001 102.5h40c1.33301 -32.667 10.333 -60 27 -82s43.334 -33 80.001 -33s63.334 11 80.001 33s25.667 49.333 27 82h40c-2.66699 -39.333 -15.334 -73.5 -38.001 -102.5s-59 -43.5 -109 -43.5zM92 0v480h44
v-240c0 -14 -1.66699 -74.333 -5 -181h4c6 10 17.333 27.333 34 52s28 42 34 52l216 317h43v-480h-44v240c0 16 1.66699 76.333 5 181h-4l-34 -52l-34 -52l-216 -317h-43z" />
    <glyph glyph-name="uni043A" unicode="&#x43a;" horiz-adv-x="470" 
d="M290 253l163.999 -253h-50l-147 231h-121v-231h-44v480h44v-210h120l50 118c16.667 40.667 33.5 68.167 50.5 82.5s36.833 21.5 59.5 21.5c8.66699 0 16.334 -1.33301 23.001 -4l-10 -43c-4 1.33301 -9 2 -15 2c-14 0 -26.667 -5 -38 -15s-23.333 -30.333 -36 -61z" />
    <glyph glyph-name="uni043B" unicode="&#x43b;" horiz-adv-x="505" 
d="M48 -12c-13.333 0 -25 2.33301 -35 7l10 42c8 -2.66699 15 -4 21 -4c38.667 0 62.334 40 71.001 120c2.66699 24 6.83398 58.333 12.501 103l15 121.5c4.33301 36.333 8.16602 70.5 11.499 102.5h259v-480h-44v442h-179c-18 -148 -29.667 -247.333 -35 -298
c-12.667 -104 -48.334 -156 -107.001 -156z" />
    <glyph glyph-name="uni043C" unicode="&#x43c;" horiz-adv-x="618" 
d="M92 0v479.999h52l115 -261c3.33301 -9.33301 8.33301 -22.333 15 -39l18 -45.5l15 -38.5h4c30 72.667 46.667 113.667 50 123l113 261h52v-480h-43v272c0 30.667 2 77.334 6 140.001h-4c-5.33301 -14 -13.5 -33.667 -24.5 -59s-17.167 -39.333 -18.5 -42l-112 -264h-40
l-114 264c-1.33301 2.66699 -7.5 16.667 -18.5 42s-19.167 45 -24.5 59h-4c3.33301 -78 5 -124.667 5 -140v-272h-42z" />
    <glyph glyph-name="uni043D" unicode="&#x43d;" horiz-adv-x="550" 
d="M92 0v480h44v-208h278v208h44v-480h-44v232h-278v-232h-44z" />
    <glyph glyph-name="uni043E" unicode="&#x43e;" horiz-adv-x="535" 
d="M267 -12c-60 0 -110.833 22.667 -152.5 68s-62.5 106.333 -62.5 183c0 77.333 20.833 138.833 62.5 184.5s92.5 68.5 152.5 68.5c60.667 0 111.834 -22.833 153.501 -68.5s62.5 -107.167 62.5 -184.5c0 -76.667 -20.833 -137.667 -62.5 -183s-92.834 -68 -153.501 -68z
M267 27c48.667 0 89.167 19.667 121.5 59s48.5 90.333 48.5 153s-16.167 114 -48.5 154s-72.833 60 -121.5 60s-89 -19.833 -121 -59.5s-48 -91.167 -48 -154.5c0 -62.667 16 -113.667 48 -153s72.333 -59 121 -59z" />
    <glyph glyph-name="uni043F" unicode="&#x43f;" horiz-adv-x="541" 
d="M92 0v480h356v-480h-44v442h-268v-442h-44z" />
    <glyph glyph-name="uni0440" unicode="&#x440;" horiz-adv-x="544" 
d="M136 374v-285c50.667 -41.333 98 -62 142 -62c48.667 0 88.667 20.5 120 61.5s47 93.833 47 158.5c0 63.333 -12.333 113.5 -37 150.5s-63 55.5 -115 55.5c-44.667 0 -97 -26.333 -157 -79zM92 -217l-0.000976562 697h38l4 -60h3c60.667 48 115 72 163 72
c62.667 0 110.334 -21.833 143.001 -65.5s49 -103.5 49 -179.5c0 -78.667 -20.667 -141.5 -62 -188.5s-91.333 -70.5 -150 -70.5c-42.667 0 -90.667 19.667 -144 59v-264h-44z" />
    <glyph glyph-name="uni0441" unicode="&#x441;" horiz-adv-x="449" 
d="M270 -12c-64 0 -116.333 22.5 -157 67.5s-61 106.167 -61 183.5s21.167 138.833 63.5 184.5s94.166 68.5 155.499 68.5c50.667 0 97.667 -19.667 141 -59l-26 -31c-36.667 34 -74.667 51 -114 51c-49.333 0 -90.666 -20 -123.999 -60s-50 -91.333 -50 -154
c0 -63.333 16 -114.5 48 -153.5s74 -58.5 126 -58.5c45.333 0 88 18.333 128 55l23 -31c-48 -42 -99 -63 -153 -63z" />
    <glyph glyph-name="uni0442" unicode="&#x442;" horiz-adv-x="441" 
d="M198 0v442h-172v38h389v-38h-172v-442h-45z" />
    <glyph glyph-name="uni0443" unicode="&#x443;" horiz-adv-x="436" 
d="M73 -219c-18 0 -34.332 3.33301 -48.999 10l10 39c13.333 -5.33301 26.333 -8 39 -8c54 0 95 42.333 123 127l13 42l-197 489h48l116 -302c25.333 -67.333 42.666 -112 51.999 -134h4c3.33301 9.33301 18 54 44 134l103 302h45l-190 -540
c-35.333 -106 -89 -159 -161 -159z" />
    <glyph glyph-name="uni0444" unicode="&#x444;" horiz-adv-x="708" 
d="M332 -217v173l1 73c-33.333 -27.333 -67 -41 -101 -41c-55.333 0 -99.166 21.833 -131.499 65.5s-48.5 105.5 -48.5 185.5c0 76 17.167 137.167 51.5 183.5s77.166 69.5 128.499 69.5c29.333 0 63 -13 101 -39l-1 71v195h44v-195l-1 -72c35.333 26.667 71 40 107 40
c56.667 0 99.834 -21.833 129.501 -65.5s44.5 -103.5 44.5 -179.5c0 -78.667 -17.333 -141.5 -52 -188.5s-77.334 -70.5 -128.001 -70.5c-31.333 0 -65 13.333 -101 40l1 -72v-173h-44zM238 27c32.667 0 64.334 14.333 95.001 43v342c-29.333 27.333 -62.333 41 -99 41
c-38.667 0 -70.834 -20.5 -96.501 -61.5s-38.5 -91.833 -38.5 -152.5c0 -64.667 12.167 -116.167 36.5 -154.5s58.5 -57.5 102.5 -57.5zM473 27c40.667 0 73.499 20.333 98.499 61s37.5 93.667 37.5 159c0 63.333 -10.833 113.5 -32.5 150.5s-55.5 55.5 -101.5 55.5
c-36 0 -69.333 -13.667 -100 -41v-344c30.667 -27.333 63.334 -41 98.001 -41z" />
    <glyph glyph-name="uni0445" unicode="&#x445;" horiz-adv-x="407" 
d="M14 0l163 250.998l-150 229h49l78 -122l51 -79h4c6 8.66699 14.167 21.834 24.5 39.501s18.5 30.834 24.5 39.501l75 122h46l-149 -233l163 -247h-49l-85 131c-20.667 34 -39.667 63.333 -57 88h-4c-7.33301 -10.667 -17.5 -26.667 -30.5 -48l-24.5 -40l-82 -131h-47z
" />
    <glyph glyph-name="uni0446" unicode="&#x446;" horiz-adv-x="531" 
d="M441 39h66v-26l-6 -185h-38v172h-371v480h44v-441h261v441h44v-441z" />
    <glyph glyph-name="uni0447" unicode="&#x447;" horiz-adv-x="490" 
d="M354 0v208.998c-38.667 -8 -72 -12 -100 -12c-63.333 0 -110.5 12.333 -141.5 37s-46.5 64.334 -46.5 119.001v127h44v-127c0 -41.333 12 -71.166 36 -89.499s62.333 -27.5 115 -27.5c30.667 0 61.667 3.66699 93 11v233h44v-480h-44z" />
    <glyph glyph-name="uni0448" unicode="&#x448;" horiz-adv-x="718" 
d="M92 0v480h44v-441h201v441h44v-441h201v441h44v-480h-534z" />
    <glyph glyph-name="uni0449" unicode="&#x449;" horiz-adv-x="716" 
d="M626 39h65v-26l-5 -185h-38v172h-556v480h44v-441h201v441h44v-441h201v441h44v-441z" />
    <glyph glyph-name="uni044A" unicode="&#x44a;" horiz-adv-x="580" 
d="M211 0v442h-185v38h229v-191h98c57.333 0 102 -12.167 134 -36.5s48 -59.833 48 -106.5c0 -48 -16 -84.333 -48 -109s-76.667 -37 -134 -37h-142zM255 38h88c50 0 87 8.66699 111 26s36 44.666 36 81.999c0 36.667 -12 63.334 -36 80.001s-61 25 -111 25h-88v-213z" />
    <glyph glyph-name="uni044B" unicode="&#x44b;" horiz-adv-x="636" 
d="M92 0v480h44v-191h87c57.333 0 102.166 -12.167 134.499 -36.5s48.5 -59.833 48.5 -106.5c0 -48 -16.167 -84.333 -48.5 -109s-77.166 -37 -134.499 -37h-131zM136 38h78c50 0 86.833 8.66699 110.5 26s35.5 44.666 35.5 81.999c0 36.667 -11.833 63.334 -35.5 80.001
s-60.5 25 -110.5 25h-78v-213zM500 0v480h44v-480h-44z" />
    <glyph glyph-name="uni044C" unicode="&#x44c;" horiz-adv-x="476" 
d="M92 0v480h44v-191h113c57.333 0 102 -12.167 134 -36.5s48 -59.833 48 -106.5c0 -48 -16 -84.333 -48 -109s-76.667 -37 -134 -37h-157zM136 38h103c50 0 87 8.66699 111 26s36 44.666 36 81.999c0 36.667 -12 63.334 -36 80.001s-61 25 -111 25h-103v-213z" />
    <glyph glyph-name="uni044D" unicode="&#x44d;" horiz-adv-x="449" 
d="M62 403l-24.998 30c42 39.333 92.667 59 152 59c60 0 109.667 -21.667 149 -65s59 -106 59 -188c0 -81.333 -19.833 -143.5 -59.5 -186.5s-91.834 -64.5 -156.501 -64.5c-58.667 0 -110.667 21 -156 63l23 30c38 -36.667 81.667 -55 131 -55c53.333 0 95.333 18 126 54
s46.334 87.333 47.001 154h-237v36h236c-4.66699 58.667 -21.834 104 -51.501 136s-67.167 48 -112.5 48c-46.667 0 -88.334 -17 -125.001 -51z" />
    <glyph glyph-name="uni044E" unicode="&#x44e;" horiz-adv-x="716" 
d="M462 27c46.667 0 84.334 19.5 113.001 58.5s43 90.167 43 153.5s-14.333 114.833 -43 154.5s-66.334 59.5 -113.001 59.5c-47.333 0 -85.833 -19.833 -115.5 -59.5s-44.5 -91.167 -44.5 -154.5c0 -62.667 14.833 -113.667 44.5 -153s68.167 -59 115.5 -59zM136 269
h124.001c5.33301 69.333 26.666 123.833 63.999 163.5s83.666 59.5 138.999 59.5c58 0 106 -22.667 144 -68s57 -107 57 -185c0 -77.333 -19 -138.5 -57 -183.5s-86 -67.5 -144 -67.5c-57.333 0 -105.166 21.5 -143.499 64.5s-58.5 101.5 -60.5 175.5h-123v-228h-44v480h44
v-211z" />
    <glyph glyph-name="uni044F" unicode="&#x44f;" horiz-adv-x="497" 
d="M360 246v197h-93c-98 0 -147 -32 -147 -96c0 -32.667 13 -57.667 39 -75s62 -26 108 -26h93zM256 480h148.001v-480h-44v209h-110h-1l-155 -209h-52l161 213c-38.667 6.66699 -69.834 21.167 -93.501 43.5s-35.5 52.833 -35.5 91.5c0 88 60.667 132 182 132z" />
    <glyph glyph-name="uni0450" unicode="&#x450;" horiz-adv-x="483" 
d="M290 574l-144 151l34 29l134 -157zM274 -12c-63.333 0 -116.167 22.667 -158.5 68s-63.5 106.333 -63.5 183c0 75.333 20.833 136.333 62.5 183s90.5 70 146.5 70c57.333 0 102.333 -19.5 135 -58.5s49 -93.5 49 -163.5c0 -16 -0.666992 -28 -2 -36h-346
c1.33301 -61.333 18.5 -111.333 51.5 -150s76.167 -58 129.5 -58c46 0 89 14.333 129 43l18 -34c-52 -31.333 -102.333 -47 -151 -47zM96.999 270h306c0 60 -12.5 105.667 -37.5 137s-59.5 47 -103.5 47c-42.667 0 -79.667 -16.667 -111 -50s-49.333 -78 -54 -134z" />
    <glyph glyph-name="uni0451" unicode="&#x451;" horiz-adv-x="483" 
d="M274 -12c-63.333 0 -116.167 22.667 -158.5 68s-63.5 106.333 -63.5 183c0 75.333 20.833 136.333 62.5 183s90.5 70 146.5 70c57.333 0 102.333 -19.5 135 -58.5s49 -93.5 49 -163.5c0 -16 -0.666992 -28 -2 -36h-346c1.33301 -61.333 18.5 -111.333 51.5 -150
s76.167 -58 129.5 -58c46 0 89 14.333 129 43l18 -34c-52 -31.333 -102.333 -47 -151 -47zM96.999 270h306c0 60 -12.5 105.667 -37.5 137s-59.5 47 -103.5 47c-42.667 0 -79.667 -16.667 -111 -50s-49.333 -78 -54 -134zM171.999 598c-10.667 0 -19.5 3.5 -26.5 10.5
s-10.5 15.833 -10.5 26.5s3.5 19.5 10.5 26.5s15.833 10.5 26.5 10.5s19.5 -3.5 26.5 -10.5s10.5 -15.833 10.5 -26.5s-3.5 -19.5 -10.5 -26.5s-15.833 -10.5 -26.5 -10.5zM349.999 598c-10.667 0 -19.5 3.5 -26.5 10.5s-10.5 15.833 -10.5 26.5s3.5 19.5 10.5 26.5
s15.833 10.5 26.5 10.5s19.5 -3.5 26.5 -10.5s10.5 -15.833 10.5 -26.5s-3.5 -19.5 -10.5 -26.5s-15.833 -10.5 -26.5 -10.5z" />
    <glyph glyph-name="uni0452" unicode="&#x452;" horiz-adv-x="533" 
d="M136 477l-2 -102.999c56 56 111.667 84 167 84c118 0 177 -97.333 177 -292c0 -100.667 -7.83301 -180.667 -23.5 -240s-36.5 -100 -62.5 -122s-59.667 -33 -101 -33c-18 0 -35 4 -51 12l10 36c16.667 -6.66699 30.334 -10 41.001 -10c21.333 0 40 5.5 56 16.5
s30.667 29.167 44 54.5s23.333 61.666 30 108.999s10 105 10 173c0 91.333 -11.333 156.833 -34 196.5s-57.667 59.5 -105 59.5c-26.667 0 -51.834 -6.66699 -75.501 -20s-50.5 -35.333 -80.5 -66v-332h-44v581h-77v29l77 4v105h44v-105h190v-33h-190v-104z" />
    <glyph glyph-name="uni0453" unicode="&#x453;" horiz-adv-x="399" 
d="M92 0v480h281v-38h-237v-442h-44zM220 576l-24 23l134 157l34 -29z" />
    <glyph glyph-name="uni0454" unicode="&#x454;" horiz-adv-x="449" 
d="M401 82l22.002 -31c-48 -42 -99 -63 -153 -63c-65.333 0 -118 21.5 -158 64.5s-60 105.167 -60 186.5s20.667 143.833 62 187.5s93.666 65.5 156.999 65.5c50.667 0 97.667 -19.667 141 -59l-25 -30c-37.333 34 -76 51 -116 51c-46.667 0 -85.834 -16.167 -117.501 -48.5
s-50.167 -77.5 -55.5 -135.5h258v-36h-259c0.666992 -66.667 16.5 -118 47.5 -154s73.5 -54 127.5 -54c46 0 89 18.667 129 56z" />
    <glyph glyph-name="uni0455" unicode="&#x455;" horiz-adv-x="405" 
d="M208 -12c-64.667 0 -123.332 22.002 -175.999 66.002l26 33c49.333 -40.667 100.333 -61 153 -61c36 0 64 9.16699 84 27.5s30 40.833 30 67.5s-10.5 47.667 -31.5 63s-49.5 29.666 -85.5 42.999c-19.333 6.66699 -34.333 12.167 -45 16.5s-24 10.666 -40 18.999
s-28 16.833 -36 25.5s-15.333 19.5 -22 32.5s-10 27.5 -10 43.5c0 36.667 13.833 67.167 41.5 91.5s65.5 36.5 113.5 36.5c51.333 0 97 -16.667 137 -50l-24 -31c-38 28.667 -76.333 43 -115 43c-34.667 0 -61.334 -8.5 -80.001 -25.5s-28 -37.5 -28 -61.5
c0 -13.333 2.83301 -25 8.5 -35s14.834 -19 27.501 -27s24 -14.167 34 -18.5s24.333 -9.83301 43 -16.5c55.333 -20.667 91.666 -37.667 108.999 -51c32 -24 48 -56 48 -96c0 -38 -14.5 -70 -43.5 -96s-68.5 -39 -118.5 -39z" />
    <glyph glyph-name="uni0456" unicode="&#x456;" horiz-adv-x="229" 
d="M92 0v480h44v-480h-44zM115 596c-11.333 0 -20.833 3.66699 -28.5 11s-11.5 16.666 -11.5 27.999c0 12 3.83301 21.667 11.5 29s17.167 11 28.5 11s20.833 -3.66699 28.5 -11s11.5 -17 11.5 -29c0 -11.333 -3.83301 -20.666 -11.5 -27.999s-17.167 -11 -28.5 -11z" />
    <glyph glyph-name="uni0457" unicode="&#x457;" horiz-adv-x="229" 
d="M92 0v480h44v-480h-44zM25 598c-10.667 0 -19.5 3.5 -26.5 10.5s-10.5 15.833 -10.5 26.5s3.5 19.5 10.5 26.5s15.833 10.5 26.5 10.5s19.5 -3.5 26.5 -10.5s10.5 -15.833 10.5 -26.5s-3.5 -19.5 -10.5 -26.5s-15.833 -10.5 -26.5 -10.5zM203 598
c-10.667 0 -19.5 3.5 -26.5 10.5s-10.5 15.833 -10.5 26.5s3.5 19.5 10.5 26.5s15.833 10.5 26.5 10.5s19.5 -3.5 26.5 -10.5s10.5 -15.833 10.5 -26.5s-3.5 -19.5 -10.5 -26.5s-15.833 -10.5 -26.5 -10.5z" />
    <glyph glyph-name="uni0458" unicode="&#x458;" horiz-adv-x="229" 
d="M29 -229c-21.333 0 -42 3.99902 -62 11.999l11 36c20 -6.66699 36.667 -10 50 -10c25.333 0 42.333 8.83301 51 26.5s13 43.834 13 78.501v566h45v-569c0 -93.333 -36 -140 -108 -140zM115 595.999c-10.667 0 -20 3.66699 -28 11s-12 16.666 -12 27.999
c0 12 4 21.667 12 29s17.333 11 28 11c11.333 0 21 -3.66699 29 -11s12 -17 12 -29c0 -11.333 -4 -20.666 -12 -27.999s-17.667 -11 -29 -11z" />
    <glyph glyph-name="uni0459" unicode="&#x459;" horiz-adv-x="708" 
d="M402 38h69c50 0 87 8.66699 111 26s36 44.666 36 81.999c0 36.667 -12 63.334 -36 80.001s-61 25 -111 25h-69v-213zM402 289l78.999 -0.000976562c57.333 0 102 -12.167 134 -36.5s48 -59.833 48 -106.5c0 -48 -16 -84.333 -48 -109s-76.667 -37 -134 -37h-123v442h-170
c-6.66699 -130 -14.667 -230.333 -24 -301c-7.33301 -51.333 -21.5 -89.666 -42.5 -114.999s-44.833 -38 -71.5 -38c-13.333 0 -25 2.33301 -35 7l10 42c8 -2.66699 14.667 -4 20 -4c40 0 65.667 40 77 120c12.667 83.333 21.334 192.333 26.001 327h254v-191z" />
    <glyph glyph-name="uni045A" unicode="&#x45a;" horiz-adv-x="741" 
d="M435 38h69c50 0 87 8.66699 111 26s36 44.666 36 81.999c0 36.667 -12 63.334 -36 80.001s-61 25 -111 25h-69v-213zM435 289h79c57.333 0 102 -12.167 134 -36.5s48 -59.833 48 -106.5c0 -48 -16 -84.333 -48 -109s-76.667 -37 -134 -37h-123v232h-255v-232h-44v480h44
v-208h255v208h44v-191z" />
    <glyph glyph-name="uni045B" unicode="&#x45b;" horiz-adv-x="528" 
d="M136 581v-209.999c58 58 113.333 87 166 87c49.333 0 85.833 -15.167 109.5 -45.5s35.5 -76.5 35.5 -138.5v-274h-44v268c0 51.333 -8.66699 89.166 -26 113.499s-45.333 36.5 -84 36.5c-27.333 0 -52.5 -7 -75.5 -21s-50.167 -37 -81.5 -69v-328h-44v581h-77v29l77 4
v105h44v-105h190v-33h-190z" />
    <glyph glyph-name="uni045C" unicode="&#x45c;" horiz-adv-x="470" 
d="M381 727l-144 -151l-24 23l134 157zM290 253l163.999 -253h-50l-147 231h-121v-231h-44v480h44v-210h120l50 118c16.667 40.667 33.5 68.167 50.5 82.5s36.833 21.5 59.5 21.5c8.66699 0 16.334 -1.33301 23.001 -4l-10 -43c-4 1.33301 -9 2 -15 2
c-14 0 -26.667 -5 -38 -15s-23.333 -30.333 -36 -61z" />
    <glyph glyph-name="uni045D" unicode="&#x45d;" horiz-adv-x="554" 
d="M308 576l-144 151l34 29l134 -157zM92 0v480h44v-240c0 -14 -1.66699 -74.333 -5 -181h4c6 10 17.333 27.333 34 52s28 42 34 52l216 317h43v-480h-44v240c0 16 1.66699 76.333 5 181h-4l-34 -52l-34 -52l-216 -317h-43z" />
    <glyph glyph-name="uni045E" unicode="&#x45e;" horiz-adv-x="436" 
d="M73 -219c-18 0 -34.332 3.33301 -48.999 10l10 39c13.333 -5.33301 26.333 -8 39 -8c54 0 95 42.333 123 127l13 42l-197 489h48l116 -302c25.333 -67.333 42.666 -112 51.999 -134h4c3.33301 9.33301 18 54 44 134l103 302h45l-190 -540
c-35.333 -106 -89 -159 -161 -159zM229.001 572c-50 0 -86.333 14.5 -109 43.5s-35.334 63.167 -38.001 102.5h40c1.33301 -32.667 10.333 -60 27 -82s43.334 -33 80.001 -33s63.334 11 80.001 33s25.667 49.333 27 82h40c-2.66699 -39.333 -15.334 -73.5 -38.001 -102.5
s-59 -43.5 -109 -43.5z" />
    <glyph glyph-name="uni045F" unicode="&#x45f;" horiz-adv-x="546" 
d="M454 480v-480h-157l-5 -172h-37l-2 172h-161v480h44v-441h274v441h44z" />
    <glyph glyph-name="uni0462" unicode="&#x462;" horiz-adv-x="608" 
d="M225 38l95.999 -0.000976562c66 0 114.667 11.833 146 35.5s47 61.834 47 114.501c0 47.333 -16.167 81.833 -48.5 103.5s-83.166 32.5 -152.499 32.5h-88v-286zM224.999 361.999h100c156.667 0 235 -57 235 -171c0 -127.333 -75.667 -191 -227 -191h-154v521h-150v39
h150v143h46v-143h246v-39h-246v-159z" />
    <glyph glyph-name="uni0463" unicode="&#x463;" horiz-adv-x="561" 
d="M191 0v447h-165v39h165v133h44v-133h200v-39h-200v-158h99c57.333 0 102.166 -12.167 134.499 -36.5s48.5 -59.833 48.5 -106.5c0 -48 -16.167 -84.333 -48.5 -109s-77.166 -37 -134.499 -37h-143zM235 38h90c50 0 86.833 8.66699 110.5 26s35.5 44.666 35.5 81.999
c0 36.667 -11.833 63.334 -35.5 80.001s-60.5 25 -110.5 25h-90v-213z" />
    <glyph glyph-name="uni0472" unicode="&#x472;" horiz-adv-x="652" 
d="M552 331h-451.002c0.666992 -96 21.167 -170.333 61.5 -223s94.833 -79 163.5 -79s123.334 26.333 164.001 79s61.334 127 62.001 223zM101.998 369h449c-4.66699 82 -27.167 146 -67.5 192s-92.833 69 -157.5 69s-117 -23 -157 -69s-62.333 -110 -67 -192zM325.998 671
c81.333 0 147 -30 197 -90s75 -143 75 -249c0 -106.667 -25 -190.667 -75 -252s-115.667 -92 -197 -92s-146.833 30.667 -196.5 92s-74.5 145.333 -74.5 252c0 106 24.833 189 74.5 249s115.167 90 196.5 90z" />
    <glyph glyph-name="uni0473" unicode="&#x473;" horiz-adv-x="535" 
d="M440 234h-345c0.666992 -64 17 -114.667 49 -152s73 -56 123 -56c50.667 0 92 18.667 124 56s48.333 88 49 152zM96 270h342.998c-5.33301 56.667 -23.666 101.5 -54.999 134.5s-70.333 49.5 -117 49.5c-46 0 -84.667 -16.5 -116 -49.5s-49.666 -77.833 -54.999 -134.5z
M266.998 492c62 0 113.5 -22.167 154.5 -66.5s61.5 -106.5 61.5 -186.5c0 -79.333 -20.5 -141 -61.5 -185s-92.5 -66 -154.5 -66c-61.333 0 -112.5 22 -153.5 66s-61.5 105.667 -61.5 185c0 80 20.5 142.167 61.5 186.5s92.167 66.5 153.5 66.5z" />
    <glyph glyph-name="uni0474" unicode="&#x474;" horiz-adv-x="502" 
d="M222 0l-217.999 659h49l122 -385c32.667 -106 56 -179.667 70 -221h4c8.66699 27.333 19.667 64.5 33 111.5s24 83.5 32 109.5l80 278c12 42.667 25.667 73.167 41 91.5s36.333 27.5 63 27.5c12 0 23.667 -2.66699 35 -8l-12 -45c-7.33301 4 -15 6 -23 6
c-14 0 -25.333 -6 -34 -18s-17.334 -32.333 -26.001 -61l-162 -545h-54z" />
    <glyph glyph-name="uni0475" unicode="&#x475;" horiz-adv-x="444" 
d="M192 0l-179.999 480h48l108 -301c5.33301 -16.667 13.833 -40.667 25.5 -72l24.5 -66h4c4 12 10.833 33.833 20.5 65.5l22.5 72.5l64 194c14 43.333 28.167 74 42.5 92s34.166 27 59.499 27c12 0 23.667 -2.66699 35 -8l-12 -43c-8 4 -15.667 6 -23 6
c-13.333 0 -24.333 -6 -33 -18s-18 -32.667 -28 -62l-121 -367h-57z" />
    <glyph glyph-name="uni0490" unicode="&#x490;" horiz-adv-x="485" 
d="M427 831h38l-9 -212h-313v-619h-46v659h317z" />
    <glyph glyph-name="uni0491" unicode="&#x491;" horiz-adv-x="406" 
d="M352 652h36l-8 -210h-244v-442h-44v480h247z" />
    <glyph glyph-name="uni0492" unicode="&#x492;" horiz-adv-x="506" 
d="M477 619h-313v-265h163v-33h-163v-321h-46v321h-81v31l81 2v305h359v-40z" />
    <glyph glyph-name="uni0493" unicode="&#x493;" horiz-adv-x="405" 
d="M380 442h-237v-185h141v-33h-141v-224h-44v224h-66v29l66 4v223h281v-38z" />
    <glyph glyph-name="uni0496" unicode="&#x496;" horiz-adv-x="813" 
d="M736 40h44.0029v-26l-7 -202h-39v188h-28l-189 331h-111v-331h-44v331h-111l-189 -331h-53l207 354l-78 174c-18.667 40 -34.834 66 -48.501 78s-28.834 18 -45.501 18c-8 0 -15 -1.33301 -21 -4l-8 46c8 3.33301 16.667 5 26 5c26.667 0 49.667 -8.33301 69 -25
s40.666 -50 63.999 -100l81 -176h107v289h44v-289h107l80 176c23.333 50 44.833 83.333 64.5 100s42.834 25 69.501 25c9.33301 0 18 -1.66699 26 -5l-9 -46c-5.33301 2.66699 -12.333 4 -21 4c-16 0 -30.833 -6 -44.5 -18s-29.834 -38 -48.501 -78l-78 -174z" />
    <glyph glyph-name="uni0497" unicode="&#x497;" horiz-adv-x="669" 
d="M594 39h49.9971v-26l-5 -185h-38v172h-33l-132 231h-99v-231h-40v231h-99l-132 -231h-49l150 257l-45 114c-12 30 -23.833 50.167 -35.5 60.5s-24.5 15.5 -38.5 15.5c-6 0 -11 -0.666992 -15 -2l-10 43c6.66699 2.66699 14.334 4 23.001 4
c22.667 0 42.834 -7.66699 60.501 -23s34.167 -42.333 49.5 -81l47 -118h94v210h40v-210h93l48 118c15.333 38.667 31.833 65.667 49.5 81s37.834 23 60.501 23c8 0 15.333 -1.33301 22 -4l-9 -43c-4 1.33301 -9 2 -15 2c-14.667 0 -27.667 -5.16699 -39 -15.5
s-23 -30.5 -35 -60.5l-45 -115z" />
    <glyph glyph-name="uni0498" unicode="&#x498;" horiz-adv-x="548" 
d="M362 355l-0.000976562 -4c42 -7.33301 76.167 -25.5 102.5 -54.5s39.5 -66.833 39.5 -113.5c0 -55.333 -19.167 -100.5 -57.5 -135.5s-86.833 -54.5 -145.5 -58.5l-6 -177h-39v177c-44 2 -82.5 10.833 -115.5 26.5s-64.5 39.5 -94.5 71.5l29 31
c31.333 -32.667 62.333 -55.5 93 -68.5s67.667 -19.5 111 -19.5c50.667 0 93.167 13.667 127.5 41s51.5 64.666 51.5 111.999c0 49.333 -18.333 86.333 -55 111s-88.667 37 -156 37h-67v38h47c67.333 0 116.833 11.333 148.5 34s47.5 56.667 47.5 102
c0 38.667 -14 69 -42 91s-64 33 -108 33c-67.333 0 -122.666 -22.333 -165.999 -67l-26 31c21.333 22.667 49 41.334 83 56.001s70.333 22 109 22c56 0 102.5 -14.833 139.5 -44.5s55.5 -69.5 55.5 -119.5c0 -36.667 -9.33301 -68.5 -28 -95.5s-44.667 -45.833 -78 -56.5z
" />
    <glyph glyph-name="uni0499" unicode="&#x499;" horiz-adv-x="444" 
d="M298 257l-0.000976562 -3.99902c30.667 -8 55.667 -22.167 75 -42.5s29 -47.166 29 -80.499c0 -38.667 -15.333 -71 -46 -97s-69.334 -40.667 -116.001 -44l-5 -161h-36l-2 161c-59.333 3.33301 -111 24 -155 62l23 31c42 -37.333 93 -56 153 -56
c38.667 0 71.334 9.83301 98.001 29.5s40 45.167 40 76.5c0 33.333 -13.167 58.666 -39.5 75.999s-63.833 26 -112.5 26h-60v36h47c46.667 0 82.334 8.33301 107.001 25s37 39.667 37 69s-10.667 51.666 -32 66.999s-49.333 23 -84 23c-50 0 -97 -16 -141 -48l-23 31
c50 36.667 105 55 165 55c46 0 84.167 -10.833 114.5 -32.5s45.5 -52.167 45.5 -91.5c0 -50.667 -27.333 -87.667 -82 -111z" />
    <glyph glyph-name="uni049A" unicode="&#x49a;" horiz-adv-x="605" 
d="M524 40l46.999 0.000976562v-26l-6 -202h-39v188h-28l-219 331h-136v-331h-46v659h46v-289h138l96 176c28 51.333 50.667 85 68 101s39 24 65 24c9.33301 0 18 -1.66699 26 -5l-8 -46c-6 2.66699 -13 4 -21 4c-15.333 0 -29.166 -5.83301 -41.499 -17.5
s-29.833 -37.834 -52.5 -78.501l-95 -176z" />
    <glyph glyph-name="uni049B" unicode="&#x49b;" horiz-adv-x="505" 
d="M429 39h51.999v-26l-5 -185h-38v172h-34l-147 231h-121v-231h-44v480h44v-210h120l50 118c16.667 40.667 33.5 68.167 50.5 82.5s36.833 21.5 59.5 21.5c8.66699 0 16.334 -1.33301 23.001 -4l-10 -43c-4 1.33301 -9 2 -15 2c-14 0 -26.667 -5 -38 -15
s-23.333 -30.333 -36 -61l-50 -118z" />
    <glyph glyph-name="uni04A0" unicode="&#x4a0;" horiz-adv-x="697" 
d="M460 352l231.999 -351.999h-52l-219 331h-136v-331h-46v619h-210v40h256v-289h138l96 176c28 51.333 50.667 85 68 101s39 24 65 24c9.33301 0 18 -1.66699 26 -5l-8 -46c-6 2.66699 -13 4 -21 4c-15.333 0 -29.166 -5.83301 -41.499 -17.5
s-29.833 -37.834 -52.5 -78.501z" />
    <glyph glyph-name="uni04A1" unicode="&#x4a1;" horiz-adv-x="589" 
d="M409 253l164 -253h-50l-147 231h-121v-231h-44v442h-185v38h229v-210h120l50 118c16.667 40.667 33.5 68.167 50.5 82.5s36.833 21.5 59.5 21.5c8.66699 0 16.334 -1.33301 23.001 -4l-10 -43c-4 1.33301 -9 2 -15 2c-14.667 0 -27.334 -5 -38.001 -15
s-22.667 -30.333 -36 -61z" />
    <glyph glyph-name="uni04A2" unicode="&#x4a2;" horiz-adv-x="644" 
d="M542 40h69v-26l-7 -202h-39v188h-69v330h-353v-330h-46v659h46v-289h353v289h46v-619z" />
    <glyph glyph-name="uni04A3" unicode="&#x4a3;" horiz-adv-x="548" 
d="M458 39h66v-26l-5 -185h-38v172h-67v232h-278v-232h-44v480h44v-208h278v208h44v-441z" />
    <glyph glyph-name="uni04AA" unicode="&#x4aa;" horiz-adv-x="564" 
d="M500 111l27.001 -29c-49.333 -56.667 -107 -87.667 -173 -93l-5 -177h-39v177c-76.667 5.33301 -138.334 38.833 -185.001 100.5s-70 142.167 -70 241.5c0 104 25.833 186.667 77.5 248s119.5 92 203.5 92c70 0 127.333 -26.333 172 -79l-27 -31
c-40 45.333 -88 68 -144 68c-72.667 0 -129.834 -26.667 -171.501 -80s-62.5 -126 -62.5 -218s20.667 -165.167 62 -219.5s97.333 -81.5 168 -81.5c62.667 0 118.334 27 167.001 81z" />
    <glyph glyph-name="uni04AB" unicode="&#x4ab;" horiz-adv-x="449" 
d="M400 82l23 -30.999c-42.667 -36.667 -87.667 -57.334 -135 -62.001l-5 -161h-36l-2 161c-57.333 6 -103.833 31.167 -139.5 75.5s-53.5 102.5 -53.5 174.5c0 77.333 21.167 138.833 63.5 184.5s94.166 68.5 155.499 68.5c50.667 0 97.667 -19.667 141 -59l-26 -31
c-36.667 34 -74.667 51 -114 51c-49.333 0 -90.666 -20 -123.999 -60s-50 -91.333 -50 -154c0 -63.333 16 -114.5 48 -153.5s74 -58.5 126 -58.5c45.333 0 88 18.333 128 55z" />
    <glyph glyph-name="uni04AE" unicode="&#x4ae;" horiz-adv-x="447" 
d="M200 0v267l-197 392h49l100 -206c35.333 -74 58.666 -121.333 69.999 -142h4c36.667 70.667 60.334 118 71.001 142l100 206h47l-198 -392v-267h-46z" />
    <glyph glyph-name="uni04AF" unicode="&#x4af;" horiz-adv-x="434" 
d="M197 -217l0.00195312 216.999l-185 480h48l108 -292l27.5 -79.5c12.333 -35 19.166 -54.167 20.499 -57.5h4c23.333 62.667 39.666 108.334 48.999 137.001l108 292h45l-181 -480v-217h-44z" />
    <glyph glyph-name="uni04B0" unicode="&#x4b0;" horiz-adv-x="447" 
d="M444 659l-185 -366h126v-33h-139v-260h-46v260h-138v31l85 2h40l-184 366h49l100 -206c35.333 -74 58.666 -121.333 69.999 -142h4c36.667 70.667 60.334 118 71.001 142l100 206h47z" />
    <glyph glyph-name="uni04B1" unicode="&#x4b1;" horiz-adv-x="434" 
d="M422 480l-168.998 -447.001h135v-33h-147v-217h-44v217h-151v29l78 4h60l-172 447h48l108 -292l27.5 -79.5c12.333 -35 19.166 -54.167 20.499 -57.5h4c23.333 62.667 39.666 108.334 48.999 137.001l108 292h45z" />
    <glyph glyph-name="uni04B2" unicode="&#x4b2;" horiz-adv-x="520" 
d="M442 40h44.999v-26l-7 -202h-39v188h-26l-115 202c-13.333 24.667 -33.666 59.667 -60.999 105h-4l-56 -105l-115 -202h-47l198 341l-184 318h50l108 -194l54 -90h4l49 90l108 194h47l-184 -320z" />
    <glyph glyph-name="uni04B3" unicode="&#x4b3;" horiz-adv-x="443" 
d="M367 39l51 -0.00195312v-26l-5 -185h-38v172h-31l-85 131c-20.667 34 -39.667 63.333 -57 88h-4c-7.33301 -10.667 -17.5 -26.667 -30.5 -48l-24.5 -40l-82 -131h-47l163 251l-150 229h49l78 -122l51 -79h4c6 8.66699 14.167 21.834 24.5 39.501s18.5 30.834 24.5 39.501
l75 122h46l-149 -233z" />
    <glyph glyph-name="uni04B6" unicode="&#x4b6;" horiz-adv-x="584" 
d="M482 40h69v-26l-7 -202h-38v188h-70v311c-50 -7.33301 -94 -11 -132 -11c-76 0 -133.833 15.5 -173.5 46.5s-59.5 81.833 -59.5 152.5v160h45v-160c0 -58 16 -98.833 48 -122.5s80 -35.5 144 -35.5c47.333 0 90 3.66699 128 11v307h46v-619z" />
    <glyph glyph-name="uni04B7" unicode="&#x4b7;" horiz-adv-x="488" 
d="M398 39l66 -0.00195312v-26l-5 -185h-38v172h-67v209c-38.667 -8 -72 -12 -100 -12c-63.333 0 -110.5 12.333 -141.5 37s-46.5 64.334 -46.5 119.001v127h44v-127c0 -41.333 12 -71.166 36 -89.499s62.333 -27.5 115 -27.5c30.667 0 61.667 3.66699 93 11v233h44v-441z
" />
    <glyph glyph-name="uni04BA" unicode="&#x4ba;" horiz-adv-x="579" 
d="M97 0v659h46v-271c41.333 7.33301 85.333 11 132 11c76 0 133.833 -15.333 173.5 -46s59.5 -81.667 59.5 -153v-200h-45v200c0 58 -16 99 -48 123s-80 36 -144 36c-44 0 -86.667 -4 -128 -12v-347h-46z" />
    <glyph glyph-name="uni04BB" unicode="&#x4bb;" horiz-adv-x="528" 
d="M92 0v719.001h44v-314c58 58 113.333 87 166 87c49.333 0 85.833 -15.167 109.5 -45.5s35.5 -76.5 35.5 -138.5v-308h-44v302c0 51.333 -8.66699 89.166 -26 113.499s-45.333 36.5 -84 36.5c-27.333 0 -52.5 -7 -75.5 -21s-50.167 -37 -81.5 -69v-362h-44z" />
    <glyph glyph-name="uni04C0" unicode="&#x4c0;" horiz-adv-x="240" 
d="M97 0v659h46v-659h-46z" />
    <glyph glyph-name="uni04C1" unicode="&#x4c1;" horiz-adv-x="768" 
d="M477 838h41.998c-7.33301 -85.333 -52.666 -128 -135.999 -128s-128.666 42.667 -135.999 128h42c1.33301 -28.667 9.5 -52.167 24.5 -70.5s38.167 -27.5 69.5 -27.5s54.5 9.16699 69.5 27.5s23.167 41.833 24.5 70.5zM551.998 354l207.003 -354h-53l-189 331h-111v-331
h-44v331h-111l-189 -331h-53l207 354l-78 174c-18.667 40 -34.834 66 -48.501 78s-28.834 18 -45.501 18c-8 0 -15 -1.33301 -21 -4l-8 46c8 3.33301 16.667 5 26 5c26.667 0 49.667 -8.33301 69 -25s40.666 -50 63.999 -100l81 -176h107v289h44v-289h107l80 176
c23.333 50 44.833 83.333 64.5 100s42.834 25 69.501 25c9.33301 0 18 -1.66699 26 -5l-9 -46c-5.33301 2.66699 -12.333 4 -21 4c-16 0 -30.833 -6 -44.5 -18s-29.834 -38 -48.501 -78z" />
    <glyph glyph-name="uni04C2" unicode="&#x4c2;" horiz-adv-x="634" 
d="M425 718h40c-2.66699 -39.333 -15.334 -73.5 -38.001 -102.5s-59 -43.5 -109 -43.5s-86.333 14.5 -109 43.5s-35.334 63.167 -38.001 102.5h40c1.33301 -32.667 10.333 -60 27 -82s43.334 -33 80.001 -33s63.334 11 80.001 33s25.667 49.333 27 82zM467 256l149.997 -256
h-49l-132 231h-99v-231h-40v231h-99l-132 -231h-49l150 257l-45 114c-12 30 -23.833 50.167 -35.5 60.5s-24.5 15.5 -38.5 15.5c-6 0 -11 -0.666992 -15 -2l-10 43c6.66699 2.66699 14.334 4 23.001 4c22.667 0 42.834 -7.66699 60.501 -23s34.167 -42.333 49.5 -81l47 -118
h94v210h40v-210h93l48 118c15.333 38.667 31.833 65.667 49.5 81s37.834 23 60.501 23c8 0 15.333 -1.33301 22 -4l-9 -43c-4 1.33301 -9 2 -15 2c-14.667 0 -27.667 -5.16699 -39 -15.5s-23 -30.5 -35 -60.5z" />
    <glyph glyph-name="uni04CF" unicode="&#x4cf;" horiz-adv-x="237" 
d="M151 -12c-39.333 0 -59 25.333 -59 76v655h44v-661c0 -20.667 7 -31 21 -31c5.33301 0 11.333 0.666992 18 2l8 -36c-10 -3.33301 -20.667 -5 -32 -5z" />
    <glyph glyph-name="uni04D0" unicode="&#x4d0;" horiz-adv-x="526" 
d="M357 838h41.998c-7.33301 -85.333 -52.666 -128 -135.999 -128s-128.666 42.667 -135.999 128h42c1.33301 -28.667 9.5 -52.167 24.5 -70.5s38.167 -27.5 69.5 -27.5s54.5 9.16699 69.5 27.5s23.167 41.833 24.5 70.5zM145.998 265h234l-42 123
c-30.667 88.667 -55 164.667 -73 228h-4c-18 -63.333 -42.333 -139.333 -73 -228zM469.998 0l-77 226h-261l-78 -226h-46l232 659h46l232 -659h-48z" />
    <glyph glyph-name="uni04D1" unicode="&#x4d1;" horiz-adv-x="491" 
d="M255 572c-50 0 -86.333 14.5 -109 43.5s-35.334 63.167 -38.001 102.5h40c1.33301 -32.667 10.333 -60 27 -82s43.334 -33 80.001 -33s63.334 11 80.001 33s25.667 49.333 27 82h40c-2.66699 -39.333 -15.334 -73.5 -38.001 -102.5s-59 -43.5 -109 -43.5zM197 -12
c-40.667 0 -74.001 11.168 -100.001 33.501s-39 55.166 -39 98.499c0 52.667 24.5 93 73.5 121s127.833 48 236.5 60c1.33301 101.333 -36.667 152 -114 152c-50.667 0 -101.667 -18.667 -153 -56l-20 33c58.667 41.333 118.334 62 179.001 62
c53.333 0 92 -16.833 116 -50.5s36 -78.5 36 -134.5v-307h-38l-4 62h-3c-62 -49.333 -118.667 -74 -170 -74zM204.999 26.001c47.333 0 101.667 26.001 163 78.001v163c-96 -11.333 -164.167 -28.5 -204.5 -51.5s-60.5 -54.167 -60.5 -93.5
c0 -32.667 9.5 -56.834 28.5 -72.501s43.5 -23.5 73.5 -23.5z" />
    <glyph glyph-name="uni04D4" unicode="&#x4d4;" horiz-adv-x="809" 
d="M210 255h201v364h-4l-124 -231zM457 40h305v-40h-351v217h-222l-119 -217h-49l365 659h366v-40h-295v-249h245v-40h-245v-290z" />
    <glyph glyph-name="uni04D5" unicode="&#x4d5;" horiz-adv-x="784" 
d="M205 -12c-40.667 0 -74.168 11.168 -100.501 33.501s-39.5 54.833 -39.5 97.5c0 52.667 24.5 93.167 73.5 121.5s126.167 48.5 231.5 60.5c1.33301 101.333 -36.334 152 -113.001 152c-48.667 0 -98 -18.667 -148 -56l-20 33c58.667 41.333 116 62 172 62
c38 0 68.833 -10.5 92.5 -31.5s39.5 -50.5 47.5 -88.5c18 37.333 41.667 66.666 71 87.999s61.333 32 96 32c56 0 99.667 -19.333 131 -58s47 -93.334 47 -164.001c0 -16 -0.666992 -28 -2 -36h-332c0 -60 16.333 -109.5 49 -148.5s73.334 -58.5 122.001 -58.5
c43.333 0 85 14.333 125 43l19 -35c-16.667 -10 -30.167 -17.667 -40.5 -23s-25.333 -10.666 -45 -15.999s-40.5 -8 -62.5 -8c-67.333 0 -124.666 33 -171.999 99c-31.333 -30 -65.333 -54 -102 -72s-70 -27 -100 -27zM211.999 26.001c26.667 0 56.5 8.33301 89.5 25
s62.833 39.334 89.5 68.001c-14 28.667 -21 69 -21 121l-1 27c-92 -11.333 -158 -28.5 -198 -51.5s-60 -54.167 -60 -93.5c0 -32.667 9.33301 -56.834 28 -72.501s43 -23.5 73 -23.5zM411.999 268.001h292.999c0 60.667 -12.167 106.834 -36.5 138.501
s-58.166 47.5 -101.499 47.5c-40 0 -74.667 -17.333 -104 -52s-46.333 -79.334 -51 -134.001z" />
    <glyph glyph-name="uni04D6" unicode="&#x4d6;" horiz-adv-x="515" 
d="M97 0v659h361v-40h-315v-249h264v-40h-264v-290h325v-40h-371zM282 710c-83.333 0 -128.668 42.667 -136.001 128h42c1.33301 -28.667 9.5 -52.167 24.5 -70.5s38.167 -27.5 69.5 -27.5s54.5 9.16699 69.5 27.5s23.167 41.833 24.5 70.5h42
c-7.33301 -85.333 -52.666 -128 -135.999 -128z" />
    <glyph glyph-name="uni04D7" unicode="&#x4d7;" horiz-adv-x="483" 
d="M274 -12c-63.333 0 -116.167 22.667 -158.5 68s-63.5 106.333 -63.5 183c0 75.333 20.833 136.333 62.5 183s90.5 70 146.5 70c57.333 0 102.333 -19.5 135 -58.5s49 -93.5 49 -163.5c0 -16 -0.666992 -28 -2 -36h-346c1.33301 -61.333 18.5 -111.333 51.5 -150
s76.167 -58 129.5 -58c46 0 89 14.333 129 43l18 -34c-52 -31.333 -102.333 -47 -151 -47zM96.999 270h306c0 60 -12.5 105.667 -37.5 137s-59.5 47 -103.5 47c-42.667 0 -79.667 -16.667 -111 -50s-49.333 -78 -54 -134zM260.999 572c-50 0 -86.333 14.5 -109 43.5
s-35.334 63.167 -38.001 102.5h40c1.33301 -32.667 10.333 -60 27 -82s43.334 -33 80.001 -33s63.334 11 80.001 33s25.667 49.333 27 82h40c-2.66699 -39.333 -15.334 -73.5 -38.001 -102.5s-59 -43.5 -109 -43.5z" />
    <glyph glyph-name="uni04D8" unicode="&#x4d8;" horiz-adv-x="648" 
d="M546 299h-437c2 -82.667 22.5 -148.667 61.5 -198s89.5 -74 151.5 -74c66.667 0 119.5 23.833 158.5 71.5s60.833 114.5 65.5 200.5zM155 565l-23.998 30.999c51.333 50 116.333 75 195 75c85.333 0 151.166 -29.5 197.499 -88.5s69.5 -142.833 69.5 -251.5
c0 -107.333 -24.333 -191.333 -73 -252s-114.667 -91 -198 -91c-81.333 0 -145 31 -191 93s-69 143.667 -69 245c0 0.666992 0.166992 2.33398 0.5 5.00098s0.5 4.66699 0.5 6h484c-1.33301 94 -20.833 166.667 -58.5 218s-91.834 77 -162.501 77
c-67.333 0 -124.333 -22.333 -171 -67z" />
    <glyph glyph-name="uni04D9" unicode="&#x4d9;" horiz-adv-x="483" 
d="M231 -12c-57.333 0 -103.834 20.168 -139.501 60.501s-53.5 97.166 -53.5 170.499c0 17.333 0.666992 30 2 38h346c-1.33301 58 -16.5 105.333 -45.5 142s-68.5 55 -118.5 55c-46.667 0 -92 -15.333 -136 -46l-18 34c49.333 33.333 102.333 50 159 50
c60.667 0 109.834 -22.333 147.501 -67s56.5 -106 56.5 -184c0 -77.333 -18.667 -138.833 -56 -184.5s-85.333 -68.5 -144 -68.5zM229.999 26.001c44.667 0 80.667 17.333 108 52s43.333 82.334 48 143.001h-307c0 -64.667 13.667 -113.334 41 -146.001s64 -49 110 -49z" />
    <glyph glyph-name="uni04E2" unicode="&#x4e2;" horiz-adv-x="644" 
d="M97 0v659h46v-404c0 -42.667 -2 -106.667 -6 -192h4l75 130l282 466h49v-659h-46v409c0 18.667 0.333008 38.5 1 59.5s1.5 44 2.5 69s1.83301 44.5 2.5 58.5h-4l-74 -129l-283 -467h-49zM202 744v36h248v-36h-248z" />
    <glyph glyph-name="uni04E3" unicode="&#x4e3;" horiz-adv-x="554" 
d="M92 0v480h44v-240c0 -14 -1.66699 -74.333 -5 -181h4c6 10 17.333 27.333 34 52s28 42 34 52l216 317h43v-480h-44v240c0 16 1.66699 76.333 5 181h-4l-34 -52l-34 -52l-216 -317h-43zM155 608v36h246v-36h-246z" />
    <glyph glyph-name="uni04E6" unicode="&#x4e6;" horiz-adv-x="652" 
d="M228 725c-10.667 0 -19.334 3.33301 -26.001 10s-10 15.334 -10 26.001c0 11.333 3.33301 20.333 10 27s15.334 10 26.001 10s19.5 -3.33301 26.5 -10s10.5 -15.667 10.5 -27c0 -10.667 -3.5 -19.334 -10.5 -26.001s-15.833 -10 -26.5 -10zM424 725
c-10.667 0 -19.5 3.33301 -26.5 10s-10.5 15.334 -10.5 26.001c0 11.333 3.5 20.333 10.5 27s15.833 10 26.5 10s19.334 -3.33301 26.001 -10s10 -15.667 10 -27c0 -10.667 -3.33301 -19.334 -10 -26.001s-15.334 -10 -26.001 -10zM326 -12c-80 0 -145.167 31.5 -195.5 94.5
s-75.5 146.167 -75.5 249.5c0 102.667 25.167 184.834 75.5 246.501s115.5 92.5 195.5 92.5c80.667 0 146.167 -30.833 196.5 -92.5s75.5 -143.834 75.5 -246.501c0 -103.333 -25.333 -186.5 -76 -249.5s-116 -94.5 -196 -94.5zM326 30c67.333 0 121.333 27.5 162 82.5
s61 128.167 61 219.5c0 90.667 -20.333 162.834 -61 216.501s-94.667 80.5 -162 80.5s-121.333 -26.833 -162 -80.5s-61 -125.834 -61 -216.501c0 -91.333 20.333 -164.5 61 -219.5s94.667 -82.5 162 -82.5z" />
    <glyph glyph-name="uni04E7" unicode="&#x4e7;" horiz-adv-x="535" 
d="M178 598c-10.667 0 -19.5 3.5 -26.5 10.5s-10.5 15.833 -10.5 26.5s3.5 19.5 10.5 26.5s15.833 10.5 26.5 10.5s19.5 -3.5 26.5 -10.5s10.5 -15.833 10.5 -26.5s-3.5 -19.5 -10.5 -26.5s-15.833 -10.5 -26.5 -10.5zM356 598c-10.667 0 -19.5 3.5 -26.5 10.5
s-10.5 15.833 -10.5 26.5s3.5 19.5 10.5 26.5s15.833 10.5 26.5 10.5s19.5 -3.5 26.5 -10.5s10.5 -15.833 10.5 -26.5s-3.5 -19.5 -10.5 -26.5s-15.833 -10.5 -26.5 -10.5zM267 -12c-60 0 -110.833 22.667 -152.5 68s-62.5 106.333 -62.5 183
c0 77.333 20.833 138.833 62.5 184.5s92.5 68.5 152.5 68.5c60.667 0 111.834 -22.833 153.501 -68.5s62.5 -107.167 62.5 -184.5c0 -76.667 -20.833 -137.667 -62.5 -183s-92.834 -68 -153.501 -68zM267 27c48.667 0 89.167 19.667 121.5 59s48.5 90.333 48.5 153
s-16.167 114 -48.5 154s-72.833 60 -121.5 60s-89 -19.833 -121 -59.5s-48 -91.167 -48 -154.5c0 -62.667 16 -113.667 48 -153s72.333 -59 121 -59z" />
    <glyph glyph-name="uni04E8" unicode="&#x4e8;" horiz-adv-x="652" 
d="M552 331h-451.002c0.666992 -96 21.167 -170.333 61.5 -223s94.833 -79 163.5 -79s123.334 26.333 164.001 79s61.334 127 62.001 223zM101.998 369h449c-4.66699 82 -27.167 146 -67.5 192s-92.833 69 -157.5 69s-117 -23 -157 -69s-62.333 -110 -67 -192zM325.998 671
c81.333 0 147 -30 197 -90s75 -143 75 -249c0 -106.667 -25 -190.667 -75 -252s-115.667 -92 -197 -92s-146.833 30.667 -196.5 92s-74.5 145.333 -74.5 252c0 106 24.833 189 74.5 249s115.167 90 196.5 90z" />
    <glyph glyph-name="uni04E9" unicode="&#x4e9;" horiz-adv-x="535" 
d="M440 234h-345c0.666992 -64 17 -114.667 49 -152s73 -56 123 -56c50.667 0 92 18.667 124 56s48.333 88 49 152zM96 270h342.998c-5.33301 56.667 -23.666 101.5 -54.999 134.5s-70.333 49.5 -117 49.5c-46 0 -84.667 -16.5 -116 -49.5s-49.666 -77.833 -54.999 -134.5z
M266.998 492c62 0 113.5 -22.167 154.5 -66.5s61.5 -106.5 61.5 -186.5c0 -79.333 -20.5 -141 -61.5 -185s-92.5 -66 -154.5 -66c-61.333 0 -112.5 22 -153.5 66s-61.5 105.667 -61.5 185c0 80 20.5 142.167 61.5 186.5s92.167 66.5 153.5 66.5z" />
    <glyph glyph-name="uni04EE" unicode="&#x4ee;" horiz-adv-x="491" 
d="M123 -12c-21.333 0 -39.334 2.99902 -54.001 8.99902l12 43c10 -4 22.333 -6 37 -6c25.333 0 45.333 5.16699 60 15.5s27.334 27.5 38.001 51.5l17 43l-226 515h49l150 -352l47 -113h4l43 113l138 352h48l-223 -557c-14.667 -37.333 -33 -65.666 -55 -84.999
s-50.333 -29 -85 -29zM108.999 742.999v36h248v-36h-248z" />
    <glyph glyph-name="uni04EF" unicode="&#x4ef;" horiz-adv-x="436" 
d="M73 -219c-18 0 -34.332 3.33301 -48.999 10l10 39c13.333 -5.33301 26.333 -8 39 -8c54 0 95 42.333 123 127l13 42l-197 489h48l116 -302c25.333 -67.333 42.666 -112 51.999 -134h4c3.33301 9.33301 18 54 44 134l103 302h45l-190 -540
c-35.333 -106 -89 -159 -161 -159zM106.001 606v36h246v-36h-246z" />
    <glyph glyph-name="uni04F2" unicode="&#x4f2;" horiz-adv-x="491" 
d="M150 721l88 148l34 -21l-96 -140zM294 721l88 148l34 -21l-96 -140zM123 -12c-21.333 0 -39.334 2.99902 -54.001 8.99902l12 43c10 -4 22.333 -6 37 -6c25.333 0 45.333 5.16699 60 15.5s27.334 27.5 38.001 51.5l17 43l-226 515h49l150 -352l47 -113h4l43 113l138 352
h48l-223 -557c-14.667 -37.333 -33 -65.666 -55 -84.999s-50.333 -29 -85 -29z" />
    <glyph glyph-name="uni04F3" unicode="&#x4f3;" horiz-adv-x="436" 
d="M73 -219c-18 0 -34.332 3.33301 -48.999 10l10 39c13.333 -5.33301 26.333 -8 39 -8c54 0 95 42.333 123 127l13 42l-197 489h48l116 -302c25.333 -67.333 42.666 -112 51.999 -134h4c3.33301 9.33301 18 54 44 134l103 302h45l-190 -540
c-35.333 -106 -89 -159 -161 -159zM179.001 569l-27 13l86 168l35 -19zM313.001 569l-27 13l86 168l35 -19z" />
    <glyph glyph-name=".null" horiz-adv-x="0" 
 />
    <glyph glyph-name="nonmarkingreturn" horiz-adv-x="333" 
 />
    <glyph glyph-name="uni0407.a" horiz-adv-x="240" 
d="M56 725c-10 0 -18.333 3.33301 -25 10s-10 15.334 -10 26.001c0 11.333 3.33301 20.333 10 27s15 10 25 10c10.667 0 19.334 -3.33301 26.001 -10s10 -15.667 10 -27c0 -10.667 -3.33301 -19.334 -10 -26.001s-15.334 -10 -26.001 -10zM184 725
c-10 0 -18.5 3.33301 -25.5 10s-10.5 15.334 -10.5 26.001c0 11.333 3.5 20.333 10.5 27s15.5 10 25.5 10s18.5 -3.33301 25.5 -10s10.5 -15.667 10.5 -27c0 -10.667 -3.5 -19.334 -10.5 -26.001s-15.5 -10 -25.5 -10zM97 0v659h46v-659h-46z" />
    <glyph glyph-name="uni0457.a" horiz-adv-x="231" 
d="M57 598c-10 0 -18.5 3.5 -25.5 10.5s-10.5 15.833 -10.5 26.5c0 10 3.5 18.5 10.5 25.5s15.5 10.5 25.5 10.5s18.5 -3.5 25.5 -10.5s10.5 -15.5 10.5 -25.5c0 -10.667 -3.5 -19.5 -10.5 -26.5s-15.5 -10.5 -25.5 -10.5zM174 598c-10 0 -18.333 3.5 -25 10.5
s-10 15.833 -10 26.5c0 10 3.33301 18.5 10 25.5s15 10.5 25 10.5c10.667 0 19.334 -3.5 26.001 -10.5s10 -15.5 10 -25.5c0 -10.667 -3.33301 -19.5 -10 -26.5s-15.334 -10.5 -26.001 -10.5zM93 0v480h44v-480h-44z" />
    <glyph glyph-name="uni0431.srb" horiz-adv-x="514" 
d="M254 27c52 0 92.168 18 120.501 54s42.5 82 42.5 138c0 43.333 -10.167 79.666 -30.5 108.999s-50.833 59 -91.5 89c-62.667 -14.667 -111.334 -41.167 -146.001 -79.5s-52 -84.166 -52 -137.499c0 -49.333 15.667 -90.5 47 -123.5s68 -49.5 110 -49.5zM454.001 730
l9.99902 -44.002c-22 -12 -53.667 -20.667 -95 -26c-16.667 -2.66699 -35.667 -5.16699 -57 -7.5s-37.666 -4.33301 -48.999 -6s-24 -3.66699 -38 -6s-24.5 -4.83301 -31.5 -7.5s-13.833 -6.16699 -20.5 -10.5s-11.334 -9.66602 -14.001 -15.999s-4 -13.833 -4 -22.5
c0 -12 6.16699 -23.5 18.5 -34.5s32.833 -25 61.5 -42s51 -31.167 67 -42.5c36.667 -26.667 64.667 -49 84 -67s36.833 -42.5 52.5 -73.5s23.5 -65.833 23.5 -104.5c0 -68.667 -18.833 -124.5 -56.5 -167.5s-88.167 -64.5 -151.5 -64.5c-54 0 -101.167 19.5 -141.5 58.5
s-60.5 89.833 -60.5 152.5c0 118 70 199 210 243l-43.5 29c-19 12.667 -33.333 22.5 -43 29.5s-20.5 15.5 -32.5 25.5s-20.5 19.833 -25.5 29.5s-7.5 19.5 -7.5 29.5c0 10.667 1 20.167 3 28.5s5.66699 15.833 11 22.5s10.333 12.5 15 17.5s12.334 9.5 23.001 13.5
s19.667 7.16699 27 9.5s18.833 4.83301 34.5 7.5l38 6.5c9.66699 1.66699 24.5 3.83398 44.5 6.50098s36 5 48 7c44 6 77.333 14.667 100 26z" />
    <glyph glyph-name="i.trk" horiz-adv-x="229" 
d="M92 0v480h44v-480h-44zM115 596c-11.333 0 -20.833 3.66699 -28.5 11s-11.5 16.666 -11.5 27.999c0 12 3.83301 21.667 11.5 29s17.167 11 28.5 11s20.833 -3.66699 28.5 -11s11.5 -17 11.5 -29c0 -11.333 -3.83301 -20.666 -11.5 -27.999s-17.167 -11 -28.5 -11z" />
    </font>
</defs>
</svg>
